<svg version="1.1" viewBox="0.0 0.0 1018.3070866141733 381.0839895013123" fill="none" stroke="none" stroke-linecap="square" stroke-miterlimit="10" xmlns:xlink="http://www.w3.org/1999/xlink" xmlns="http://www.w3.org/2000/svg"><clipPath id="p.0"><path d="m0 0l1018.30707 0l0 381.08398l-1018.30707 0l0 -381.08398z" clip-rule="nonzero"/></clipPath><g clip-path="url(#p.0)"><path fill="#000000" fill-opacity="0.0" d="m0 0l1018.30707 0l0 381.08398l-1018.30707 0z" fill-rule="evenodd"/><path fill="#ffff00" d="m0 0l1018.2992 0l0 381.07086l-1018.2992 0z" fill-rule="evenodd"/><path fill="#ffd966" d="m533.6098 19.793478l0 199.51878c0 9.886841 -1.5549927 17.551071 -4.664856 22.99266c-3.1099243 5.4032745 -7.512268 9.177887 -13.207031 11.323883c-5.6947937 2.1076508 -12.520447 3.1614838 -20.47696 3.1614838c-5.452423 0 -11.591492 -0.536499 -18.417145 -1.6094818c-6.8256226 -1.0729828 -12.843506 -2.069336 -18.05362 -2.9890442l0 21.555618c5.2101135 2.1076355 11.773254 3.985382 19.689362 5.6331787c7.956543 1.6477966 15.408203 2.4717102 22.355011 2.4717102c14.135956 0 25.727448 -1.9351807 34.774445 -5.8056335c9.087402 -3.9087524 15.913086 -10.212555 20.476929 -18.911469c4.604309 -8.737198 6.906433 -20.156876 6.906433 -34.25905l0 -203.08264z" fill-rule="evenodd"/><path fill="#ffd966" d="m706.66046 111.994026c8.966248 0 17.1651 2.4142303 24.596558 7.242691c7.4315186 4.8284607 13.509949 12.607628 18.235413 23.337547c4.725464 10.691589 7.088196 24.851227 7.088196 42.478928c0 18.624054 -2.2415771 33.30104 -6.7247314 44.030945c-4.4830933 10.691574 -10.440369 18.27916 -17.871887 22.762726c-7.4314575 4.4452515 -15.87262 6.667877 -25.323547 6.667877c-9.652832 0 -19.386414 -1.3987427 -29.200806 -4.196167c-9.814392 -2.8357697 -19.063354 -6.4954224 -27.746887 -10.978989l0 -115.48062c7.471863 -3.7554626 15.973633 -7.338478 25.50531 -10.749069c9.5720825 -3.4105682 20.052856 -5.1158676 31.442383 -5.1158676zm8.239258 -23.33754c-8.198853 0 -16.458313 1.1879578 -24.77832 3.563858c-8.320007 2.337593 -16.014038 5.2116776 -23.08197 8.622246c-7.067993 3.4105759 -12.843567 6.6487045 -17.32666 9.714401l-5.5736084 -19.428795l-23.809021 0l0 272.29053l29.38263 0l0 -99.21332c9.693237 5.17334 20.174011 9.4653015 31.442383 12.875885c11.308777 3.4105835 22.556946 5.1158752 33.744568 5.1158752c16.3573 0 29.746094 -3.6405334 40.16632 -10.921509c10.420227 -7.319336 18.174805 -18.221695 23.263733 -32.70706c5.088928 -14.485367 7.633423 -32.323853 7.633423 -53.51541c0 -12.68428 -1.2520142 -24.793747 -3.7561035 -36.3284c-2.463684 -11.534653 -6.5429688 -21.76638 -12.237732 -30.69519c-5.694763 -8.967133 -13.085815 -16.094856 -22.173218 -21.383171c-9.047058 -5.3266373 -20.012512 -7.9899445 -32.896423 -7.9899445z" fill-rule="evenodd"/><path fill="#ffd966" d="m909.1417 17.666656c-25.283142 0 -44.87152 5.1925106 -58.765198 15.577526c-13.893616 10.346695 -20.840393 27.76363 -20.840393 52.250813l0 14.830261c0 23.069298 6.3813477 39.317444 19.144104 48.74443c12.762756 9.388672 30.45288 14.083008 53.070435 14.083008l29.382568 0c14.378296 0 24.798523 3.1231537 31.260681 9.369507c6.462158 6.2463226 9.693237 15.36673 9.693237 27.361252l0 17.704346c0 10.57663 -2.6656494 18.700714 -7.9969482 24.372223c-5.331238 5.633194 -12.4800415 9.522781 -21.446228 11.668777c-8.925842 2.1076508 -18.962402 3.1614838 -30.10962 3.1614838c-9.935547 0 -20.052856 -0.11495972 -30.351929 -0.34487915c-10.299011 -0.2682495 -19.911499 -0.63230896 -28.837341 -1.0921631c-8.925842 -0.45985413 -16.498657 -0.9388733 -22.718506 -1.4370422l0 21.555603c4.725464 0.95803833 10.622192 1.8010864 17.690125 2.5292053c7.067993 0.6897888 14.560059 1.3220825 22.476196 1.8968811c7.956543 0.5748291 15.711121 1.0346985 23.263733 1.3795776c7.5930176 0.38320923 14.115784 0.5747986 19.568237 0.5747986c16.155396 0 30.735596 -1.7627563 43.74066 -5.2882996c13.045471 -3.5255432 23.465698 -10.001801 31.260681 -19.428802c7.835388 -9.426971 11.753052 -22.858505 11.753052 -40.294617l0 -20.118576c0 -11.764572 -2.362732 -22.168747 -7.088196 -31.21254c-4.725464 -9.082092 -11.934814 -16.209808 -21.62799 -21.383163c-9.652832 -5.17334 -22.052124 -7.760025 -37.197815 -7.760025l-31.624146 0c-14.135925 0 -25.18219 -2.7016296 -33.138733 -8.104904c-7.9161377 -5.4416046 -11.874207 -15.347603 -11.874207 -29.71801l0 -12.013664c0 -11.534653 2.1608276 -20.405983 6.482361 -26.613998c4.3619385 -6.246338 10.622192 -10.595779 18.78064 -13.048336c8.198853 -2.4908714 17.89209 -3.7363052 29.079712 -3.7363052c12.156921 0 25.121582 0.3448906 38.894043 1.034668c13.772461 0.6897812 26.111145 1.5136871 37.016052 2.471714l0 -21.555616c-6.2198486 -1.187952 -13.974426 -2.2992668 -23.263794 -3.3339367c-9.289307 -1.0729866 -18.901794 -2.011856 -28.837341 -2.816599c-9.935547 -0.84306145 -18.881592 -1.2645969 -26.838135 -1.2645969z" fill-rule="evenodd"/><path stroke="#000000" stroke-width="3.0" stroke-linejoin="round" stroke-linecap="butt" stroke-dasharray="24.0,9.0" d="m533.6098 19.793478l0 199.51878c0 9.886841 -1.5549927 17.551071 -4.664856 22.99266c-3.1099243 5.4032745 -7.512268 9.177887 -13.207031 11.323883c-5.6947937 2.1076508 -12.520447 3.1614838 -20.47696 3.1614838c-5.452423 0 -11.591492 -0.536499 -18.417145 -1.6094818c-6.8256226 -1.0729828 -12.843506 -2.069336 -18.05362 -2.9890442l0 21.555618c5.2101135 2.1076355 11.773254 3.985382 19.689362 5.6331787c7.956543 1.6477966 15.408203 2.4717102 22.355011 2.4717102c14.135956 0 25.727448 -1.9351807 34.774445 -5.8056335c9.087402 -3.9087524 15.913086 -10.212555 20.476929 -18.911469c4.604309 -8.737198 6.906433 -20.156876 6.906433 -34.25905l0 -203.08264z" fill-rule="evenodd"/><path stroke="#000000" stroke-width="3.0" stroke-linejoin="round" stroke-linecap="butt" stroke-dasharray="24.0,9.0" d="m706.66046 111.994026c8.966248 0 17.1651 2.4142303 24.596558 7.242691c7.4315186 4.8284607 13.509949 12.607628 18.235413 23.337547c4.725464 10.691589 7.088196 24.851227 7.088196 42.478928c0 18.624054 -2.2415771 33.30104 -6.7247314 44.030945c-4.4830933 10.691574 -10.440369 18.27916 -17.871887 22.762726c-7.4314575 4.4452515 -15.87262 6.667877 -25.323547 6.667877c-9.652832 0 -19.386414 -1.3987427 -29.200806 -4.196167c-9.814392 -2.8357697 -19.063354 -6.4954224 -27.746887 -10.978989l0 -115.48062c7.471863 -3.7554626 15.973633 -7.338478 25.50531 -10.749069c9.5720825 -3.4105682 20.052856 -5.1158676 31.442383 -5.1158676zm8.239258 -23.33754c-8.198853 0 -16.458313 1.1879578 -24.77832 3.563858c-8.320007 2.337593 -16.014038 5.2116776 -23.08197 8.622246c-7.067993 3.4105759 -12.843567 6.6487045 -17.32666 9.714401l-5.5736084 -19.428795l-23.809021 0l0 272.29053l29.38263 0l0 -99.21332c9.693237 5.17334 20.174011 9.4653015 31.442383 12.875885c11.308777 3.4105835 22.556946 5.1158752 33.744568 5.1158752c16.3573 0 29.746094 -3.6405334 40.16632 -10.921509c10.420227 -7.319336 18.174805 -18.221695 23.263733 -32.70706c5.088928 -14.485367 7.633423 -32.323853 7.633423 -53.51541c0 -12.68428 -1.2520142 -24.793747 -3.7561035 -36.3284c-2.463684 -11.534653 -6.5429688 -21.76638 -12.237732 -30.69519c-5.694763 -8.967133 -13.085815 -16.094856 -22.173218 -21.383171c-9.047058 -5.3266373 -20.012512 -7.9899445 -32.896423 -7.9899445z" fill-rule="evenodd"/><path stroke="#000000" stroke-width="3.0" stroke-linejoin="round" stroke-linecap="butt" stroke-dasharray="24.0,9.0" d="m909.1417 17.666656c-25.283142 0 -44.87152 5.1925106 -58.765198 15.577526c-13.893616 10.346695 -20.840393 27.76363 -20.840393 52.250813l0 14.830261c0 23.069298 6.3813477 39.317444 19.144104 48.74443c12.762756 9.388672 30.45288 14.083008 53.070435 14.083008l29.382568 0c14.378296 0 24.798523 3.1231537 31.260681 9.369507c6.462158 6.2463226 9.693237 15.36673 9.693237 27.361252l0 17.704346c0 10.57663 -2.6656494 18.700714 -7.9969482 24.372223c-5.331238 5.633194 -12.4800415 9.522781 -21.446228 11.668777c-8.925842 2.1076508 -18.962402 3.1614838 -30.10962 3.1614838c-9.935547 0 -20.052856 -0.11495972 -30.351929 -0.34487915c-10.299011 -0.2682495 -19.911499 -0.63230896 -28.837341 -1.0921631c-8.925842 -0.45985413 -16.498657 -0.9388733 -22.718506 -1.4370422l0 21.555603c4.725464 0.95803833 10.622192 1.8010864 17.690125 2.5292053c7.067993 0.6897888 14.560059 1.3220825 22.476196 1.8968811c7.956543 0.5748291 15.711121 1.0346985 23.263733 1.3795776c7.5930176 0.38320923 14.115784 0.5747986 19.568237 0.5747986c16.155396 0 30.735596 -1.7627563 43.74066 -5.2882996c13.045471 -3.5255432 23.465698 -10.001801 31.260681 -19.428802c7.835388 -9.426971 11.753052 -22.858505 11.753052 -40.294617l0 -20.118576c0 -11.764572 -2.362732 -22.168747 -7.088196 -31.21254c-4.725464 -9.082092 -11.934814 -16.209808 -21.62799 -21.383163c-9.652832 -5.17334 -22.052124 -7.760025 -37.197815 -7.760025l-31.624146 0c-14.135925 0 -25.18219 -2.7016296 -33.138733 -8.104904c-7.9161377 -5.4416046 -11.874207 -15.347603 -11.874207 -29.71801l0 -12.013664c0 -11.534653 2.1608276 -20.405983 6.482361 -26.613998c4.3619385 -6.246338 10.622192 -10.595779 18.78064 -13.048336c8.198853 -2.4908714 17.89209 -3.7363052 29.079712 -3.7363052c12.156921 0 25.121582 0.3448906 38.894043 1.034668c13.772461 0.6897812 26.111145 1.5136871 37.016052 2.471714l0 -21.555616c-6.2198486 -1.187952 -13.974426 -2.2992668 -23.263794 -3.3339367c-9.289307 -1.0729866 -18.901794 -2.011856 -28.837341 -2.816599c-9.935547 -0.84306145 -18.881592 -1.2645969 -26.838135 -1.2645969z" fill-rule="evenodd"/><path fill="#000000" fill-opacity="0.0" d="m0 0l431.49606 0l0 381.07086l-431.49606 0z" fill-rule="evenodd"/><path fill="#000000" d="m54.40428 83.24045l10.375 0l0 72.1875q0 25.3125 26.6875 25.3125q11.5 0 20.75 -7.1875q12.3125 -9.5625 20.125 -37.6875l9.125 5.75q-6.4375 21.9375 -15.1875 32.8125q-13.125 16.3125 -35.5625 16.3125q-21.9375 0 -30.875 -13.75q-5.4375 -8.375 -5.4375 -21.6875l0 -72.0625zm54.125 32.625q-4.125 -10.75 -11.25 -20.875l7.9375 -3.0625q7.125 10.5625 11.25 20.625l-7.9375 3.3125zm16.25 -6.25q-4.3125 -11.25 -11.125 -20.875l7.5625 -2.9375q7.0625 9.1875 11.25 20.3125l-7.6875 3.5zm56.25 -4.0q3.3125 6.75 9.1875 20.0q4.3125 -1.4375 13.375 -4.375l5.75 -1.875l1.75 -0.5625q-3.5625 -8.5 -7.4375 -15.1875l7.8125 -3.25q4.25 7.0625 8.1875 16.3125q6.875 -1.4375 11.6875 -1.4375q9.6875 0 16.125 5.1875q7.6875 6.125 7.6875 17.5q0 14.6875 -10.875 21.0625q-8.0 4.75 -23.4375 6.4375l-3.875 -8.0625q13.8125 -1.1875 21.5625 -5.625q6.625 -3.8125 6.625 -14.0q0 -7.0625 -4.0 -10.875q-3.875 -3.6875 -9.9375 -3.6875q-2.9375 0 -8.3125 1.0q2.9375 7.8125 5.125 15.375l-8.375 3.6875q-2.0625 -7.5625 -5.5 -16.875q-6.3125 2.0 -19.0 6.3125l-1.6875 0.625q1.125 2.75 2.625 6.3125q11.5 27.0 18.3125 50.0l-8.8125 3.0625q-7.6875 -26.25 -20.625 -56.3125q-8.375 3.1875 -17.4375 6.75l-1.625 0.6875l-3.3125 -8.1875q5.25 -2.0 11.8125 -4.375q4.125 -1.5 7.25 -2.6875q-4.875 -10.9375 -9.3125 -19.8125l8.6875 -3.125zm167.43752 -24.1875l10.0 0l0.375 25.5l26.875 0l0 8.8125l-26.625 0l0.375 38.6875q14.8125 6.75 29.5625 19.4375l-5.375 8.8125q-11.8125 -10.625 -24.0625 -18.0625q-0.1875 13.0625 -5.8125 19.0q-5.75 6.0 -18.125 6.0q-11.25 0 -18.9375 -4.625q-8.9375 -5.4375 -8.9375 -16.0q0 -8.0625 6.0 -13.375q7.5625 -6.75 21.0625 -6.75q6.5625 0 14.625 2.0625l-0.5 -35.1875l-41.1875 0l0 -8.8125l40.9375 0l-0.25 -25.5zm1.1875 78.5q-8.0625 -2.625 -15.0 -2.625q-7.25 0 -11.875 2.625q-5.25 3.0625 -5.25 8.75q0 7.0 7.125 9.9375q4.4375 1.8125 11.0625 1.8125q13.9375 0 13.9375 -16.8125l0 -3.6875zm-67.5 29.4375q-2.1875 -20.6875 -2.1875 -42.3125q0 -34.375 4.5 -65.375l9.875 1.5625q-4.5625 26.1875 -4.5625 59.75q0 23.125 2.375 44.6875l-10.0 1.6875zm96.25 -116.125q4.25 0 8.0625 2.5q6.6875 4.4375 6.6875 12.375q0 6.0 -4.375 10.4375q-4.375 4.375 -10.5625 4.375q-3.4375 0 -6.5625 -1.625q-3.5 -1.8125 -5.6875 -5.0625q-2.5 -3.8125 -2.5 -8.25q0 -3.625 1.875 -7.03125q1.875 -3.40625 5.0625 -5.40625q3.625 -2.3125 8.0 -2.3125zm-0.125 6.375q-2.0 0 -3.9375 1.0q-4.5 2.4375 -4.5 7.5q0 2.4375 1.375 4.5q2.5 3.9375 7.125 3.9375q3.1875 0 5.625 -2.1875q2.8125 -2.5625 2.8125 -6.25q0 -3.875 -2.9375 -6.4375q-2.4375 -2.0625 -5.5625 -2.0625z" fill-rule="nonzero"/><path fill="#000000" d="m80.42354 283.48047q8.578125 9.671875 21.25 9.671875q5.75 0 9.203125 -2.296875q4.078125 -2.796875 4.078125 -7.75q0 -4.5 -3.53125 -7.328125q-2.328125 -1.875 -11.25 -5.375l-1.578125 -0.625l-2.84375 -1.125q-0.28125 -0.125 -1.03125 -0.421875q-9.171875 -3.453125 -11.875 -5.703125q-0.421875 -0.375 -1.046875 -1.046875q-4.453125 -4.796875 -4.453125 -11.53125q0 -8.71875 6.25 -14.046875q6.53125 -5.578125 17.65625 -5.578125q7.75 0 13.828125 2.28125q4.84375 1.875 9.625 5.75l-5.75 8.0q-7.359375 -7.0 -17.609375 -7.0q-6.71875 0 -9.75 3.125q-2.59375 2.671875 -2.59375 6.46875q0 4.328125 3.75 6.90625q2.375 1.671875 10.09375 4.421875l3.328125 1.203125q11.0 3.953125 15.078125 7.75q5.671875 5.296875 5.671875 13.296875q0 9.90625 -7.796875 15.453125q-6.40625 4.546875 -17.5 4.546875q-17.25 0 -27.625 -11.71875l6.421875 -7.328125zm104.41287 9.75q-8.375 9.453125 -22.453125 9.453125q-14.0 0 -21.0 -9.625q-4.921875 -6.78125 -4.921875 -16.875q0 -10.625 5.875 -18.078125q7.25 -9.078125 19.375 -9.078125q12.453125 0 21.0 7.578125l-5.46875 7.703125q-6.578125 -6.40625 -14.53125 -6.40625q-7.25 0 -11.328125 5.78125q-3.421875 4.921875 -3.421875 12.375q0 7.71875 3.546875 12.375q4.03125 5.21875 11.53125 5.21875q9.09375 0 14.953125 -7.5l6.84375 7.078125zm19.621674 -27.5l0.328125 0q5.546875 -16.53125 17.046875 -16.53125q3.328125 0 6.421875 1.28125l-2.875 10.5q-2.34375 -0.796875 -4.796875 -0.796875q-6.375 0 -10.625 6.421875q-2.828125 4.203125 -3.953125 10.828125l0 23.546875l-11.09375 0l0 -50.328125l10.5 0l-0.953125 15.078125zm32.45578 -36.75l12.296875 0l0 11.421875l-12.296875 0l0 -11.421875zm0.5 21.671875l11.25 0l0 50.328125l-11.25 0l0 -50.328125zm37.21187 0l0 6.828125q6.90625 -8.203125 17.375 -8.203125q10.484375 0 16.90625 7.0q6.125 6.625 6.125 17.828125q0 9.453125 -4.375 15.828125q-6.296875 9.171875 -18.5 9.171875q-11.078125 0 -16.703125 -7.578125l0 17.5l-11.171875 0l0 -58.375l10.34375 0zm0.828125 31.203125q6.0 8.625 14.0 8.625q6.375 0 10.078125 -4.203125q3.828125 -4.34375 3.828125 -12.296875q0 -7.203125 -3.203125 -11.328125q-3.65625 -4.671875 -10.703125 -4.671875q-5.046875 0 -9.046875 3.171875q-3.125 2.453125 -4.953125 6.75l0 13.953125zm66.45978 -46.90625l0 15.703125l15.703125 0l0 7.90625l-15.703125 0l0 27.375q0 4.046875 0.953125 5.59375q1.296875 2.125 4.296875 2.125q3.703125 0 7.625 -2.921875l2.65625 7.75q-6.078125 3.875 -12.828125 3.875q-7.0 0 -10.578125 -4.171875q-2.96875 -3.453125 -2.96875 -10.0l0 -29.625l-11.25 0l0 -7.90625l11.25 0l0 -10.75l10.84375 -4.953125z" fill-rule="nonzero"/><path fill="#000000" fill-opacity="0.0" d="m431.49606 -0.41863516l0 381.92126" fill-rule="evenodd"/><path stroke="#ffffff" stroke-width="4.0" stroke-linejoin="round" stroke-linecap="butt" stroke-dasharray="4.0,12.0" d="m431.49606 -0.41863516l0 381.92126" fill-rule="evenodd"/></g></svg>