<svg version="1.1" viewBox="0.0 0.0 476.4514435695538 105.5984251968504" fill="none" stroke="none" stroke-linecap="square" stroke-miterlimit="10" xmlns:xlink="http://www.w3.org/1999/xlink" xmlns="http://www.w3.org/2000/svg"><clipPath id="p.0"><path d="m0 0l476.45145 0l0 105.59843l-476.45145 0l0 -105.59843z" clip-rule="nonzero"/></clipPath><g clip-path="url(#p.0)"><path fill="#000000" fill-opacity="0.0" d="m0 0l476.45145 0l0 105.59843l-476.45145 0z" fill-rule="evenodd"/><path fill="#073763" d="m41.362885 77.0979l0 -59.203125l11.828125 0l0 24.640625l22.328125 0l0 -24.640625l11.921875 0l0 59.203125l-11.921875 0l0 -23.921875l-22.328125 0l0 23.921875l-11.828125 0zm64.802444 0.484375q-4.890625 0 -7.9375 -2.875q-3.03125 -2.890625 -3.03125 -8.015625l0 -3.828125q0 -4.890625 3.4375 -8.046875q3.4375 -3.15625 10.71875 -3.15625l10.96875 0l0 -2.96875q0 -2.0 -0.71875 -3.3125q-0.71875 -1.328125 -2.6875 -1.921875q-1.953125 -0.59375 -5.953125 -0.59375l-12.890625 0l0 -6.890625q3.125 -0.953125 7.234375 -1.671875q4.125 -0.71875 9.96875 -0.71875q5.359375 0 9.15625 1.28125q3.8125 1.28125 5.765625 4.40625q1.96875 3.109375 1.96875 8.625l0 29.203125l-9.375 0l-1.90625 -4.5625q-0.5625 0.640625 -1.921875 1.453125q-1.359375 0.796875 -3.328125 1.640625q-1.953125 0.828125 -4.40625 1.390625q-2.4375 0.5625 -5.0625 0.5625zm6.0 -8.25q0.796875 0 1.796875 -0.1875q1.0 -0.203125 2.078125 -0.484375q1.078125 -0.28125 2.0 -0.5625q0.921875 -0.28125 1.515625 -0.515625q0.609375 -0.25 0.765625 -0.328125l0 -10.0l-7.203125 0.484375q-3.125 0.234375 -4.609375 1.59375q-1.46875 1.359375 -1.46875 3.6875l0 1.765625q0 1.59375 0.671875 2.640625q0.6875 1.03125 1.84375 1.46875q1.15625 0.4375 2.609375 0.4375zm28.874954 7.765625l0 -42.953125l9.75 0l2.09375 4.390625q2.796875 -2.078125 6.109375 -3.59375q3.328125 -1.53125 8.203125 -1.53125q4.078125 0 6.75 1.6875q2.6875 1.6875 4.046875 4.40625q1.84375 -1.453125 4.28125 -2.8125q2.4375 -1.359375 5.234375 -2.3125q2.8125 -0.96875 5.53125 -0.96875q5.203125 0 8.203125 1.96875q3.0 1.953125 4.1875 5.515625q1.203125 3.5625 1.203125 8.359375l0 27.84375l-11.84375 0l0 -26.796875q0 -2.078125 -0.765625 -3.4375q-0.75 -1.359375 -2.109375 -2.078125q-1.359375 -0.734375 -3.28125 -0.734375q-2.390625 0 -4.84375 1.0q-2.4375 1.0 -4.359375 2.359375q0.171875 0.8125 0.25 1.578125q0.078125 0.75 0.078125 1.546875l0 26.5625l-11.84375 0l0 -26.796875q0 -2.078125 -0.765625 -3.4375q-0.75 -1.359375 -2.109375 -2.078125q-1.359375 -0.734375 -3.28125 -0.734375q-1.6875 0 -3.25 0.40625q-1.546875 0.40625 -2.953125 1.125q-1.390625 0.71875 -2.671875 1.671875l0 29.84375l-11.84375 0zm83.604935 0.484375q-4.890625 0 -7.9375 -2.875q-3.03125 -2.890625 -3.03125 -8.015625l0 -3.828125q0 -4.890625 3.4375 -8.046875q3.4375 -3.15625 10.71875 -3.15625l10.96875 0l0 -2.96875q0 -2.0 -0.71875 -3.3125q-0.71875 -1.328125 -2.6875 -1.921875q-1.953125 -0.59375 -5.953125 -0.59375l-12.890625 0l0 -6.890625q3.125 -0.953125 7.234375 -1.671875q4.125 -0.71875 9.96875 -0.71875q5.359375 0 9.15625 1.28125q3.8125 1.28125 5.765625 4.40625q1.96875 3.109375 1.96875 8.625l0 29.203125l-9.375 0l-1.90625 -4.5625q-0.5625 0.640625 -1.921875 1.453125q-1.359375 0.796875 -3.328125 1.640625q-1.953125 0.828125 -4.40625 1.390625q-2.4375 0.5625 -5.0625 0.5625zm6.0 -8.25q0.796875 0 1.796875 -0.1875q1.0 -0.203125 2.078125 -0.484375q1.078125 -0.28125 2.0 -0.5625q0.921875 -0.28125 1.515625 -0.515625q0.609375 -0.25 0.765625 -0.328125l0 -10.0l-7.203125 0.484375q-3.125 0.234375 -4.609375 1.59375q-1.46875 1.359375 -1.46875 3.6875l0 1.765625q0 1.59375 0.671875 2.640625q0.6875 1.03125 1.84375 1.46875q1.15625 0.4375 2.609375 0.4375zm45.187454 7.765625q-4.953125 0 -8.03125 -1.4375q-3.078125 -1.4375 -4.4375 -4.796875q-1.359375 -3.359375 -1.203125 -9.046875l0.390625 -18.15625l-6.71875 0l0 -7.609375l7.125 -1.90625l1.59375 -12.0l9.359375 0l0 12.0l10.09375 0l0 9.515625l-10.09375 0l0 18.078125q0 1.765625 0.3125 2.890625q0.328125 1.109375 0.921875 1.796875q0.609375 0.671875 1.40625 1.0q0.8125 0.3125 1.609375 0.390625l5.4375 0.484375l0 8.796875l-7.765625 0zm23.932465 0.484375q-4.890625 0 -7.9375 -2.875q-3.03125 -2.890625 -3.03125 -8.015625l0 -3.828125q0 -4.890625 3.4375 -8.046875q3.4375 -3.15625 10.71875 -3.15625l10.96875 0l0 -2.96875q0 -2.0 -0.71875 -3.3125q-0.71875 -1.328125 -2.6875 -1.921875q-1.953125 -0.59375 -5.953125 -0.59375l-12.890625 0l0 -6.890625q3.125 -0.953125 7.234375 -1.671875q4.125 -0.71875 9.96875 -0.71875q5.359375 0 9.15625 1.28125q3.8125 1.28125 5.765625 4.40625q1.96875 3.109375 1.96875 8.625l0 29.203125l-9.375 0l-1.90625 -4.5625q-0.5625 0.640625 -1.921875 1.453125q-1.359375 0.796875 -3.328125 1.640625q-1.953125 0.828125 -4.40625 1.390625q-2.4375 0.5625 -5.0625 0.5625zm6.0 -8.25q0.796875 0 1.796875 -0.1875q1.0 -0.203125 2.078125 -0.484375q1.078125 -0.28125 2.0 -0.5625q0.921875 -0.28125 1.515625 -0.515625q0.609375 -0.25 0.765625 -0.328125l0 -10.0l-7.203125 0.484375q-3.125 0.234375 -4.609375 1.59375q-1.46875 1.359375 -1.46875 3.6875l0 1.765625q0 1.59375 0.671875 2.640625q0.6875 1.03125 1.84375 1.46875q1.15625 0.4375 2.609375 0.4375zm28.87497 7.765625l0 -61.046875l11.84375 0l0 32.96875l5.03125 0l9.4375 -14.875l12.0 0l-12.640625 20.234375l13.921875 22.71875l-12.0 0l-10.875 -17.359375l-4.875 0l0 17.359375l-11.84375 0zm56.476196 0.484375q-5.765625 0 -9.046875 -3.390625q-3.265625 -3.40625 -3.265625 -9.65625l0 -30.390625l11.828125 0l0 26.875q0 3.59375 1.71875 4.84375q1.734375 1.234375 4.53125 1.234375q2.234375 0 4.59375 -0.84375q2.359375 -0.84375 4.203125 -2.28125l0 -29.828125l11.921875 0l0 42.953125l-9.84375 0l-2.078125 -4.40625q-2.875 1.921875 -6.640625 3.40625q-3.765625 1.484375 -7.921875 1.484375zm36.8031 -0.40625q-1.609375 0 -1.609375 -1.59375l0 -8.171875q0 -1.671875 1.609375 -1.671875l6.875 0q1.765625 0 1.765625 1.671875l0 8.171875q0 0.953125 -0.53125 1.28125q-0.515625 0.3125 -1.234375 0.3125l-6.875 0z" fill-rule="nonzero"/></g></svg>