<svg version="1.1" viewBox="0.0 0.0 341.68241469816275 133.23622047244095" fill="none" stroke="none" stroke-linecap="square" stroke-miterlimit="10" xmlns:xlink="http://www.w3.org/1999/xlink" xmlns="http://www.w3.org/2000/svg"><clipPath id="p.0"><path d="m0 0l341.6824 0l0 133.23622l-341.6824 0l0 -133.23622z" clip-rule="nonzero"/></clipPath><g clip-path="url(#p.0)"><path fill="#000000" fill-opacity="0.0" d="m0 0l341.6824 0l0 133.23622l-341.6824 0z" fill-rule="evenodd"/><path fill="#000000" fill-opacity="0.0" d="m0 16.0l341.38583 0l0 86.362206l-341.38583 0z" fill-rule="evenodd"/><path fill="#000000" d="m25.44223 83.3347l-14.328125 -58.703125l5.28125 0l11.734375 49.3125l13.84375 -49.3125l4.1875 0l13.84375 49.3125l11.65625 -49.3125l5.359375 0l-14.421875 58.703125l-4.609375 0l-14.0 -49.21875l-13.84375 49.21875l-4.703125 0zm73.297714 0.921875q-5.453125 0 -9.6875 -2.546875q-4.234375 -2.5625 -6.625 -7.296875q-2.390625 -4.75 -2.390625 -11.203125q0 -6.296875 2.390625 -10.984375q2.390625 -4.703125 6.578125 -7.34375q4.203125 -2.640625 9.5625 -2.640625q5.453125 0 9.265625 2.734375q3.828125 2.71875 5.828125 7.046875q2.015625 4.3125 2.015625 9.09375l0 1.671875l-30.515625 0q-0.171875 7.546875 3.5625 12.203125q3.734375 4.65625 10.09375 4.65625q4.703125 0 7.890625 -2.390625q3.1875 -2.390625 5.203125 -7.09375l4.1875 2.4375q-5.359375 11.65625 -17.359375 11.65625zm-13.25 -25.828125l25.15625 0q-0.421875 -3.265625 -2.0625 -5.953125q-1.625 -2.6875 -4.1875 -4.28125q-2.546875 -1.59375 -5.828125 -1.59375q-5.109375 0 -8.59375 3.15625q-3.46875 3.140625 -4.484375 8.671875zm59.629852 25.828125q-4.609375 0 -8.21875 -2.21875q-3.609375 -2.21875 -5.796875 -6.078125l-0.15625 7.375l-4.703125 0l0 -60.546875l5.125 0l0 27.421875q2.171875 -3.6875 5.6875 -5.828125q3.53125 -2.140625 8.0625 -2.140625q5.359375 0 9.546875 2.640625q4.203125 2.640625 6.59375 7.34375q2.390625 4.6875 2.390625 10.984375q0 6.28125 -2.390625 11.03125q-2.390625 4.734375 -6.59375 7.375q-4.1875 2.640625 -9.546875 2.640625zm-0.09375 -4.78125q3.953125 0 7.0 -2.0q3.0625 -2.015625 4.828125 -5.65625q1.765625 -3.65625 1.765625 -8.609375q0 -4.953125 -1.765625 -8.546875q-1.765625 -3.609375 -4.828125 -5.625q-3.046875 -2.015625 -7.0 -2.015625q-5.953125 0 -9.8125 4.40625q-3.84375 4.40625 -3.84375 11.78125q0 7.375 3.84375 11.828125q3.859375 4.4375 9.8125 4.4375zm29.694672 3.859375l0 -58.78125l25.578125 0q8.296875 0 12.609375 3.859375q4.328125 3.84375 4.328125 11.484375q0 7.625 -4.328125 11.484375q-4.3125 3.859375 -12.609375 3.859375l-20.46875 0l0 28.09375l-5.109375 0zm5.109375 -33.046875l20.046875 0q6.03125 0 9.0 -2.515625q2.984375 -2.515625 2.984375 -7.875q0 -5.375 -2.984375 -7.890625q-2.96875 -2.515625 -9.0 -2.515625l-20.046875 0l0 20.796875zm71.28873 34.140625q-7.96875 0 -14.015625 -3.765625q-6.03125 -3.78125 -9.4375 -10.65625q-3.390625 -6.875 -3.390625 -16.109375q0 -9.21875 3.390625 -16.046875q3.40625 -6.84375 9.4375 -10.65625q6.046875 -3.8125 14.015625 -3.8125q7.8750153 0 13.906265 3.8125q6.046875 3.8125 9.4375 10.65625q3.40625 6.828125 3.40625 16.046875q0 9.234375 -3.40625 16.109375q-3.390625 6.875 -9.4375 10.65625q-6.03125 3.765625 -13.906265 3.765625zm0 -5.03125q6.2812653 0 11.093765 -3.0625q4.828125 -3.0625 7.546875 -8.796875q2.734375 -5.75 2.734375 -13.640625q0 -7.875 -2.734375 -13.578125q-2.71875 -5.703125 -7.546875 -8.765625q-4.8125 -3.0625 -11.093765 -3.0625q-6.296875 0 -11.15625 3.0625q-4.859375 3.0625 -7.640625 8.765625q-2.765625 5.703125 -2.765625 13.578125q0 7.890625 2.765625 13.640625q2.78125 5.734375 7.640625 8.796875q4.859375 3.0625 11.15625 3.0625zm56.853867 4.9375q-6.703125 0 -12.25 -2.390625q-5.53125 -2.390625 -9.296875 -7.5l4.109375 -2.84375q3.09375 3.6875 7.40625 5.75q4.328125 2.046875 10.109375 2.046875q3.9375 0 7.25 -1.171875q3.3125 -1.1875 5.328125 -3.609375q2.015625 -2.4375 2.015625 -6.046875q0 -3.1875 -1.296875 -5.53125q-1.296875 -2.34375 -5.078125 -4.109375q-3.765625 -1.765625 -11.234375 -3.09375q-16.4375 -3.109375 -16.4375 -16.28125q0 -4.765625 2.34375 -8.40625q2.359375 -3.65625 6.546875 -5.703125q4.1875 -2.0625 9.734375 -2.0625q5.859375 0 10.546875 2.21875q4.703125 2.21875 8.5625 5.90625l-3.6875 3.53125q-3.359375 -2.9375 -7.046875 -4.734375q-3.6875 -1.8125 -8.46875 -1.8125q-5.703125 0 -9.4375 2.8125q-3.71875 2.8125 -3.71875 8.09375q0 4.609375 2.96875 7.46875q2.984375 2.84375 10.78125 4.265625q10.8125 1.9375 15.5 6.046875q4.703125 4.09375 4.703125 11.3125q0 4.953125 -2.640625 8.515625q-2.640625 3.5625 -7.171875 5.453125q-4.53125 1.875 -10.140625 1.875z" fill-rule="nonzero"/><path fill="#000000" fill-opacity="0.0" d="m4.986877E-6 100.301834l341.38583 0l0 30.708664l-341.38583 0z" fill-rule="evenodd"/><path fill="#000000" d="m13.9829 124.62183l0 -17.75l7.515626 0q2.53125 0 3.75 1.171875q1.21875 1.15625 1.21875 3.203125q0 2.078125 -1.21875 3.25q-1.21875 1.15625 -3.75 1.15625l-6.656251 0l0 8.96875l-0.859375 0zm0.859375 -9.859375l6.656251 0q2.09375 0 3.078125 -0.859375q1.0 -0.859375 1.0 -2.65625q0 -1.796875 -1.0 -2.640625q-0.984375 -0.859375 -3.078125 -0.859375l-6.656251 0l0 7.015625zm22.037003 10.140625q-2.390625 0 -4.1875 -1.140625q-1.7968731 -1.140625 -2.796873 -3.203125q-1.0 -2.0625 -1.0 -4.828125q0 -2.765625 1.0 -4.8125q1.0 -2.046875 2.796873 -3.203125q1.796875 -1.15625 4.1875 -1.15625q2.375 0 4.171875 1.15625q1.796875 1.15625 2.796875 3.203125q1.0 2.046875 1.0 4.8125q0 2.765625 -1.0 4.828125q-1.0 2.0625 -2.796875 3.203125q-1.796875 1.140625 -4.171875 1.140625zm0 -0.859375q2.046875 0 3.65625 -0.984375q1.609375 -1.0 2.515625 -2.859375q0.90625 -1.859375 0.90625 -4.46875q0 -2.609375 -0.90625 -4.453125q-0.90625 -1.859375 -2.515625 -2.84375q-1.609375 -0.984375 -3.65625 -0.984375q-2.0625 0 -3.671875 0.984375q-1.6093731 0.984375 -2.531248 2.84375q-0.921875 1.84375 -0.921875 4.453125q0 2.609375 0.921875 4.46875q0.921875 1.859375 2.531248 2.859375q1.609375 0.984375 3.671875 0.984375zm17.06932 0.859375q-1.9375 0 -3.515625 -0.609375q-1.5625 -0.609375 -2.6875 -1.828125l0.625 -0.609375q2.046875 2.1875 5.578125 2.1875q1.1875 0 2.328125 -0.390625q1.15625 -0.40625 1.90625 -1.21875q0.75 -0.828125 0.75 -2.09375q0 -1.0625 -0.4375 -1.875q-0.421875 -0.8125 -1.625 -1.40625q-1.203125 -0.59375 -3.53125 -0.953125q-5.0625 -0.828125 -5.0625 -4.828125q0 -1.390625 0.6875 -2.453125q0.703125 -1.078125 1.90625 -1.671875q1.21875 -0.59375 2.8125 -0.59375q1.46875 0 2.765625 0.46875q1.3125 0.46875 2.640625 1.453125l-0.53125 0.71875q-1.203125 -0.890625 -2.375 -1.3125q-1.15625 -0.4375 -2.5 -0.4375q-1.921875 0 -3.21875 0.984375q-1.28125 0.984375 -1.28125 2.84375q0 1.6875 1.03125 2.640625q1.046875 0.953125 3.265625 1.3125q3.40625 0.546875 4.859375 1.71875q1.453125 1.15625 1.453125 3.390625q0 1.421875 -0.796875 2.453125q-0.796875 1.015625 -2.125 1.5625q-1.328125 0.546875 -2.921875 0.546875zm20.585667 0q-1.671875 0 -3.0 -0.671875q-1.3125 -0.671875 -1.984375 -1.859375l0.78125 -0.453125q0.5625 0.984375 1.6875 1.5625q1.125 0.5625 2.515625 0.5625q0.890625 0 1.6875 -0.296875q0.796875 -0.296875 1.296875 -0.890625q0.515625 -0.609375 0.515625 -1.53125q0 -0.859375 -0.453125 -1.328125q-0.4375 -0.46875 -1.25 -0.734375q-0.8125 -0.265625 -1.953125 -0.484375q-0.984375 -0.203125 -1.96875 -0.5q-0.984375 -0.3125 -1.640625 -0.9375q-0.640625 -0.640625 -0.640625 -1.84375q0 -1.078125 0.59375 -1.796875q0.59375 -0.734375 1.546875 -1.109375q0.96875 -0.375 2.015625 -0.375q3.015625 0 4.28125 2.328125l-0.765625 0.421875q-1.015625 -1.875 -3.515625 -1.875q-1.46875 0 -2.359375 0.6875q-0.890625 0.6875 -0.890625 1.71875q0 0.796875 0.421875 1.234375q0.421875 0.421875 1.203125 0.671875q0.78125 0.25 1.875 0.484375q0.78125 0.171875 1.546875 0.375q0.78125 0.203125 1.421875 0.5625q0.65625 0.34375 1.03125 0.953125q0.375 0.59375 0.375 1.546875q0 1.53125 -1.171875 2.5625q-1.171875 1.015625 -3.203125 1.015625zm7.1679688 5.4218826q-0.40625 0 -0.828125 -0.078125q-0.40625 -0.078125 -0.765625 -0.171875l0 -0.875q0.328125 0.109375 0.75 0.15625q0.4375 0.046875 0.84375 0.046875q0.890625 0 1.421875 -0.4375q0.53125 -0.4375 0.9375 -1.5312576l1.0625 -2.8125l-4.765625 -12.109375l0.9375 0l4.25 10.9375l4.140625 -10.9375l0.953125 0l-5.75 15.203125q-0.484375 1.3593826 -1.265625 1.9843826q-0.78125 0.625 -1.921875 0.625zm15.3485565 -5.4218826q-1.671875 0 -3.0 -0.671875q-1.3125 -0.671875 -1.984375 -1.859375l0.78125 -0.453125q0.5625 0.984375 1.6875 1.5625q1.125 0.5625 2.515625 0.5625q0.890625 0 1.6875 -0.296875q0.796875 -0.296875 1.296875 -0.890625q0.515625 -0.609375 0.515625 -1.53125q0 -0.859375 -0.453125 -1.328125q-0.4375 -0.46875 -1.25 -0.734375q-0.8125 -0.265625 -1.953125 -0.484375q-0.984375 -0.203125 -1.96875 -0.5q-0.984375 -0.3125 -1.640625 -0.9375q-0.640625 -0.640625 -0.640625 -1.84375q0 -1.078125 0.59375 -1.796875q0.59375 -0.734375 1.546875 -1.109375q0.96875 -0.375 2.015625 -0.375q3.015625 0 4.28125 2.328125l-0.765625 0.421875q-1.015625 -1.875 -3.515625 -1.875q-1.46875 0 -2.359375 0.6875q-0.890625 0.6875 -0.890625 1.71875q0 0.796875 0.421875 1.234375q0.421875 0.421875 1.203125 0.671875q0.78125 0.25 1.875 0.484375q0.78125 0.171875 1.546875 0.375q0.78125 0.203125 1.421875 0.5625q0.65625 0.34375 1.03125 0.953125q0.375 0.59375 0.375 1.546875q0 1.53125 -1.171875 2.5625q-1.171875 1.015625 -3.203125 1.015625zm12.112137 0q-1.546875 0 -2.28125 -0.6875q-0.734375 -0.6875 -0.734375 -2.375l0 -8.4375l-2.765625 0l0 -0.890625l2.765625 0l0 -4.53125l0.859375 0l0 4.53125l3.875 0l0 0.890625l-3.875 0l0 8.4375q0 1.265625 0.515625 1.734375q0.515625 0.46875 1.640625 0.46875q0.40625 0 0.890625 -0.09375q0.5 -0.109375 0.828125 -0.265625l0 0.90625q-0.328125 0.109375 -0.8125 0.203125q-0.484375 0.109375 -0.90625 0.109375zm9.650528 0q-1.59375 0 -2.84375 -0.8125q-1.234375 -0.8125 -1.953125 -2.234375q-0.703125 -1.4375 -0.703125 -3.28125q0 -1.859375 0.703125 -3.28125q0.71875 -1.4375 1.953125 -2.25q1.25 -0.8125 2.84375 -0.8125q1.59375 0 2.734375 0.828125q1.140625 0.828125 1.734375 2.078125q0.59375 1.234375 0.59375 2.515625l0 0.453125l-9.671875 0q-0.078125 1.671875 0.453125 3.015625q0.53125 1.34375 1.609375 2.140625q1.078125 0.78125 2.546875 0.78125q3.0625 0 4.296875 -3.140625l0.84375 0.34375q-1.5 3.65625 -5.140625 3.65625zm-4.515625 -7.671875l8.6875 0q-0.09375 -1.09375 -0.65625 -2.015625q-0.5625 -0.921875 -1.46875 -1.5q-0.890625 -0.59375 -2.046875 -0.59375q-1.734375 0 -2.953125 1.125q-1.203125 1.109375 -1.5625 2.984375zm13.041367 7.390625l0 -12.109375l0.8906174 0l0 2.125q0.4375 -1.03125 1.4375 -1.71875q1.0 -0.703125 2.234375 -0.703125q1.59375 0 2.5625 0.734375q0.984375 0.734375 1.234375 2.046875q0.4375 -1.1875 1.375 -1.984375q0.9375 -0.796875 2.53125 -0.796875q1.953125 0 2.984375 1.140625q1.046875 1.140625 1.046875 3.546875l0 7.71875l-0.890625 0l0 -7.71875q0 -2.203125 -0.859375 -3.0q-0.859375 -0.8125 -2.28125 -0.8125q-1.09375 0 -1.9375 0.5625q-0.828125 0.5625 -1.28125 1.421875q-0.453125 0.859375 -0.453125 1.796875l0 7.75l-0.890625 0l0 -7.71875q0 -2.203125 -0.859375 -3.0q-0.859375 -0.8125 -2.28125 -0.8125q-1.09375 0 -1.9375 0.59375q-0.828125 0.578125 -1.28125 1.4375q-0.453125 0.84375 -0.453125 1.703125l0 7.796875l-0.8906174 0zm28.902931 0l0 -11.21875l-2.609375 0l0 -0.890625l2.609375 0l0 -2.53125q0 -1.46875 0.53125 -2.296875q0.53125 -0.84375 1.328125 -1.1875q0.796875 -0.34375 1.59375 -0.34375q0.859375 0 1.46875 0.25l0 0.890625q-0.265625 -0.125 -0.6875 -0.203125q-0.40625 -0.078125 -0.78125 -0.078125q-1.078125 0 -1.84375 0.6875q-0.75 0.6875 -0.75 2.28125l0 2.53125l4.0625 0l0 0.890625l-4.0625 0l0 11.21875l-0.859375 0zm12.366501 0.28125q-1.59375 0 -2.84375 -0.8125q-1.234375 -0.8125 -1.953125 -2.25q-0.703125 -1.453125 -0.703125 -3.296875q0 -1.84375 0.703125 -3.265625q0.71875 -1.421875 1.953125 -2.234375q1.25 -0.828125 2.84375 -0.828125q1.59375 0 2.828125 0.828125q1.25 0.8125 1.953125 2.234375q0.703125 1.421875 0.703125 3.265625q0 1.84375 -0.703125 3.296875q-0.703125 1.4375 -1.953125 2.25q-1.234375 0.8125 -2.828125 0.8125zm0 -0.890625q1.34375 0 2.375 -0.671875q1.046875 -0.6875 1.640625 -1.921875q0.59375 -1.25 0.59375 -2.875q0 -1.625 -0.59375 -2.84375q-0.59375 -1.234375 -1.640625 -1.921875q-1.03125 -0.6875 -2.375 -0.6875q-1.34375 0 -2.40625 0.6875q-1.046875 0.6875 -1.640625 1.921875q-0.59375 1.21875 -0.59375 2.84375q0 1.625 0.59375 2.875q0.59375 1.234375 1.640625 1.921875q1.0625 0.671875 2.40625 0.671875zm8.880325 0.609375l0 -12.109375l0.921875 0l0 2.28125q0.53125 -1.109375 1.6875 -1.84375q1.171875 -0.734375 2.640625 -0.734375q0.328125 0 0.6875 0.046875q0.375 0.03125 0.625 0.078125l0 0.859375q-0.171875 -0.046875 -0.5625 -0.078125q-0.390625 -0.03125 -0.75 -0.03125q-1.21875 0 -2.203125 0.5625q-0.96875 0.5625 -1.546875 1.46875q-0.578125 0.890625 -0.578125 1.921875l0 7.578125l-0.921875 0zm19.883041 0l-4.53125 -17.734375l0.890625 0l4.046875 16.109375l4.65625 -16.109375l0.59375 0l4.65625 16.109375l4.03125 -16.109375l0.9375 0l-4.5625 17.734375l-0.765625 0l-4.609375 -15.75l-4.578125 15.75l-0.765625 0zm21.94339 0.28125q-1.59375 0 -2.84375 -0.8125q-1.234375 -0.8125 -1.953125 -2.234375q-0.703125 -1.4375 -0.703125 -3.28125q0 -1.859375 0.703125 -3.28125q0.71875 -1.4375 1.953125 -2.25q1.25 -0.8125 2.84375 -0.8125q1.59375 0 2.734375 0.828125q1.140625 0.828125 1.734375 2.078125q0.59375 1.234375 0.59375 2.515625l0 0.453125l-9.671875 0q-0.078125 1.671875 0.453125 3.015625q0.53125 1.34375 1.609375 2.140625q1.078125 0.78125 2.546875 0.78125q3.0625 0 4.296875 -3.140625l0.84375 0.34375q-1.5 3.65625 -5.140625 3.65625zm-4.515625 -7.671875l8.6875 0q-0.09375 -1.09375 -0.65625 -2.015625q-0.5625 -0.921875 -1.46875 -1.5q-0.890625 -0.59375 -2.046875 -0.59375q-1.734375 0 -2.953125 1.125q-1.203125 1.109375 -1.5625 2.984375zm18.572617 7.671875q-1.578125 0 -2.78125 -0.78125q-1.203125 -0.796875 -1.859375 -2.140625l0 2.640625l-0.890625 0l0 -18.40625l0.890625 0l0 8.9375q0.65625 -1.34375 1.859375 -2.125q1.203125 -0.796875 2.78125 -0.796875q1.59375 0 2.8125 0.8125q1.234375 0.8125 1.9375 2.25q0.71875 1.421875 0.71875 3.28125q0 1.84375 -0.71875 3.28125q-0.703125 1.421875 -1.9375 2.234375q-1.21875 0.8125 -2.8125 0.8125zm0 -0.859375q1.34375 0 2.375 -0.6875q1.046875 -0.6875 1.640625 -1.921875q0.59375 -1.25 0.59375 -2.859375q0 -1.625 -0.59375 -2.84375q-0.59375 -1.234375 -1.640625 -1.921875q-1.03125 -0.6875 -2.375 -0.6875q-1.375 0 -2.421875 0.6875q-1.03125 0.6875 -1.625 1.921875q-0.59375 1.21875 -0.59375 2.84375q0 1.609375 0.59375 2.859375q0.59375 1.234375 1.625 1.921875q1.046875 0.6875 2.421875 0.6875zm9.120773 0.578125l0 -17.734375l5.96875 0q2.734375 0 3.890625 1.203125q1.171875 1.1875 1.171875 3.28125q0 1.375 -0.6875 2.375q-0.671875 1.0 -1.8125 1.5q1.625 0.5625 2.53125 1.828125q0.90625 1.265625 0.90625 2.828125q0 2.234375 -1.28125 3.484375q-1.265625 1.234375 -4.234375 1.234375l-6.453125 0zm0.859375 -0.890625l5.59375 0q2.484375 0 3.5625 -0.9375q1.078125 -0.953125 1.078125 -2.890625q0 -1.859375 -1.3125 -3.015625q-1.296875 -1.15625 -3.4375 -1.15625l-5.484375 0l0 8.0zm0 -8.859375l5.484375 0q1.796875 0 2.796875 -1.015625q1.015625 -1.015625 1.015625 -2.484375q0 -1.875 -1.0 -2.75q-0.984375 -0.875 -3.1875 -0.875l-5.109375 0l0 7.125zm14.730423 9.75l0 -12.109375l0.921875 0l0 2.28125q0.53125 -1.109375 1.6875 -1.84375q1.171875 -0.734375 2.640625 -0.734375q0.328125 0 0.6875 0.046875q0.375 0.03125 0.625 0.078125l0 0.859375q-0.171875 -0.046875 -0.5625 -0.078125q-0.390625 -0.03125 -0.75 -0.03125q-1.21875 0 -2.203125 0.5625q-0.96875 0.5625 -1.546875 1.46875q-0.578125 0.890625 -0.578125 1.921875l0 7.578125l-0.921875 0zm14.244263 0.28125q-1.59375 0 -2.84375 -0.8125q-1.234375 -0.8125 -1.953125 -2.25q-0.703125 -1.453125 -0.703125 -3.296875q0 -1.84375 0.703125 -3.265625q0.71875 -1.421875 1.953125 -2.234375q1.25 -0.828125 2.84375 -0.828125q1.59375 0 2.828125 0.828125q1.25 0.8125 1.953125 2.234375q0.703125 1.421875 0.703125 3.265625q0 1.84375 -0.703125 3.296875q-0.703125 1.4375 -1.953125 2.25q-1.234375 0.8125 -2.828125 0.8125zm0 -0.890625q1.34375 0 2.375 -0.671875q1.046875 -0.6875 1.640625 -1.921875q0.59375 -1.25 0.59375 -2.875q0 -1.625 -0.59375 -2.84375q-0.59375 -1.234375 -1.640625 -1.921875q-1.03125 -0.6875 -2.375 -0.6875q-1.34375 0 -2.40625 0.6875q-1.046875 0.6875 -1.640625 1.921875q-0.59375 1.21875 -0.59375 2.84375q0 1.625 0.59375 2.875q0.59375 1.234375 1.640625 1.921875q1.0625 0.671875 2.40625 0.671875zm11.108032 0.609375l-3.921875 -12.109375l0.90625 0l3.296875 10.40625l3.21875 -10.40625l0.65625 0l3.25 10.40625l3.28125 -10.40625l0.921875 0l-3.921875 12.109375l-0.609375 0l-3.21875 -10.40625l-3.25 10.40625l-0.609375 0zm18.038696 0.28125q-1.671875 0 -3.0 -0.671875q-1.3125 -0.671875 -1.984375 -1.859375l0.78125 -0.453125q0.5625 0.984375 1.6875 1.5625q1.125 0.5625 2.515625 0.5625q0.890625 0 1.6875 -0.296875q0.796875 -0.296875 1.296875 -0.890625q0.515625 -0.609375 0.515625 -1.53125q0 -0.859375 -0.453125 -1.328125q-0.4375 -0.46875 -1.25 -0.734375q-0.8125 -0.265625 -1.953125 -0.484375q-0.984375 -0.203125 -1.96875 -0.5q-0.984375 -0.3125 -1.640625 -0.9375q-0.640625 -0.640625 -0.640625 -1.84375q0 -1.078125 0.59375 -1.796875q0.59375 -0.734375 1.546875 -1.109375q0.96875 -0.375 2.015625 -0.375q3.015625 0 4.28125 2.328125l-0.765625 0.421875q-1.015625 -1.875 -3.515625 -1.875q-1.46875 0 -2.359375 0.6875q-0.890625 0.6875 -0.890625 1.71875q0 0.796875 0.421875 1.234375q0.421875 0.421875 1.203125 0.671875q0.78125 0.25 1.875 0.484375q0.78125 0.171875 1.546875 0.375q0.78125 0.203125 1.421875 0.5625q0.65625 0.34375 1.03125 0.953125q0.375 0.59375 0.375 1.546875q0 1.53125 -1.171875 2.5625q-1.171875 1.015625 -3.203125 1.015625zm12.315247 0q-1.59375 0 -2.84375 -0.8125q-1.234375 -0.8125 -1.953125 -2.234375q-0.703125 -1.4375 -0.703125 -3.28125q0 -1.859375 0.703125 -3.28125q0.71875 -1.4375 1.953125 -2.25q1.25 -0.8125 2.84375 -0.8125q1.59375 0 2.734375 0.828125q1.140625 0.828125 1.734375 2.078125q0.59375 1.234375 0.59375 2.515625l0 0.453125l-9.671875 0q-0.078125 1.671875 0.453125 3.015625q0.53125 1.34375 1.609375 2.140625q1.078125 0.78125 2.546875 0.78125q3.0625 0 4.296875 -3.140625l0.84375 0.34375q-1.5 3.65625 -5.140625 3.65625zm-4.515625 -7.671875l8.6875 0q-0.09375 -1.09375 -0.65625 -2.015625q-0.5625 -0.921875 -1.46875 -1.5q-0.890625 -0.59375 -2.046875 -0.59375q-1.734375 0 -2.953125 1.125q-1.203125 1.109375 -1.5625 2.984375zm13.041382 7.390625l0 -12.109375l0.921875 0l0 2.28125q0.53125 -1.109375 1.6875 -1.84375q1.171875 -0.734375 2.640625 -0.734375q0.328125 0 0.6875 0.046875q0.375 0.03125 0.625 0.078125l0 0.859375q-0.171875 -0.046875 -0.5625 -0.078125q-0.390625 -0.03125 -0.75 -0.03125q-1.21875 0 -2.203125 0.5625q-0.96875 0.5625 -1.546875 1.46875q-0.578125 0.890625 -0.578125 1.921875l0 7.578125l-0.921875 0z" fill-rule="nonzero"/></g></svg>