<svg id="visual" viewBox="0 0 900 600" width="900" height="600" xmlns="http://www.w3.org/2000/svg" xmlns:xlink="http://www.w3.org/1999/xlink" version="1.1"><g stroke-width="1" stroke-linejoin="bevel"><path d="M425 266L372 235L396 363Z" fill="#081a28" stroke="#081a28"></path><path d="M372 235L310 339L396 363Z" fill="#081a28" stroke="#081a28"></path><path d="M310 339L320 365L396 363Z" fill="#081a28" stroke="#081a28"></path><path d="M382 83L339 186L461 91Z" fill="#297ea6" stroke="#297ea6"></path><path d="M372 235L339 186L310 339Z" fill="#081a28" stroke="#081a28"></path><path d="M436 473L469 371L396 363Z" fill="#19435d" stroke="#19435d"></path><path d="M396 363L469 371L425 266Z" fill="#205a7a" stroke="#205a7a"></path><path d="M469 371L504 283L425 266Z" fill="#277297" stroke="#277297"></path><path d="M425 266L461 91L372 235Z" fill="#246688" stroke="#246688"></path><path d="M504 283L521 230L425 266Z" fill="#081a28" stroke="#081a28"></path><path d="M339 186L227 186L310 339Z" fill="#0c2435" stroke="#0c2435"></path><path d="M310 339L187 337L320 365Z" fill="#15384f" stroke="#15384f"></path><path d="M320 365L436 473L396 363Z" fill="#15384f" stroke="#15384f"></path><path d="M469 371L563 301L504 283Z" fill="#205a7a" stroke="#205a7a"></path><path d="M227 186L187 337L310 339Z" fill="#205a7a" stroke="#205a7a"></path><path d="M320 365L280 530L436 473Z" fill="#297ea6" stroke="#297ea6"></path><path d="M629 392L563 301L469 371Z" fill="#297ea6" stroke="#297ea6"></path><path d="M504 283L563 301L521 230Z" fill="#0c2435" stroke="#0c2435"></path><path d="M339 186L282 110L227 186Z" fill="#297ea6" stroke="#297ea6"></path><path d="M382 83L282 110L339 186Z" fill="#246688" stroke="#246688"></path><path d="M461 91L339 186L372 235Z" fill="#112e42" stroke="#112e42"></path><path d="M187 337L172 419L320 365Z" fill="#246688" stroke="#246688"></path><path d="M521 230L461 91L425 266Z" fill="#15384f" stroke="#15384f"></path><path d="M614 206L461 91L521 230Z" fill="#277297" stroke="#277297"></path><path d="M227 186L138 313L187 337Z" fill="#1d4e6b" stroke="#1d4e6b"></path><path d="M187 337L138 313L172 419Z" fill="#297ea6" stroke="#297ea6"></path><path d="M372 600L478 507L436 473Z" fill="#15384f" stroke="#15384f"></path><path d="M436 473L478 507L469 371Z" fill="#246688" stroke="#246688"></path><path d="M282 110L198 130L227 186Z" fill="#1d4e6b" stroke="#1d4e6b"></path><path d="M227 186L120 162L138 313Z" fill="#277297" stroke="#277297"></path><path d="M122 78L198 130L189 0Z" fill="#0c2435" stroke="#0c2435"></path><path d="M216 500L280 530L320 365Z" fill="#1d4e6b" stroke="#1d4e6b"></path><path d="M172 419L216 500L320 365Z" fill="#00101c" stroke="#00101c"></path><path d="M738 316L614 206L563 301Z" fill="#1d4e6b" stroke="#1d4e6b"></path><path d="M563 301L614 206L521 230Z" fill="#297ea6" stroke="#297ea6"></path><path d="M478 507L629 392L469 371Z" fill="#1d4e6b" stroke="#1d4e6b"></path><path d="M138 313L122 439L172 419Z" fill="#081a28" stroke="#081a28"></path><path d="M172 419L123 474L216 500Z" fill="#0c2435" stroke="#0c2435"></path><path d="M198 130L120 162L227 186Z" fill="#19435d" stroke="#19435d"></path><path d="M138 313L0 377L122 439Z" fill="#246688" stroke="#246688"></path><path d="M327 600L372 600L280 530Z" fill="#19435d" stroke="#19435d"></path><path d="M280 530L372 600L436 473Z" fill="#0c2435" stroke="#0c2435"></path><path d="M635 502L662 392L629 392Z" fill="#277297" stroke="#277297"></path><path d="M122 439L123 474L172 419Z" fill="#081a28" stroke="#081a28"></path><path d="M185 600L327 600L280 530Z" fill="#297ea6" stroke="#297ea6"></path><path d="M185 600L280 530L216 500Z" fill="#00101c" stroke="#00101c"></path><path d="M470 0L364 0L382 83Z" fill="#0c2435" stroke="#0c2435"></path><path d="M382 83L325 0L282 110Z" fill="#19435d" stroke="#19435d"></path><path d="M198 130L122 78L120 162Z" fill="#205a7a" stroke="#205a7a"></path><path d="M470 0L382 83L461 91Z" fill="#1d4e6b" stroke="#1d4e6b"></path><path d="M364 0L325 0L382 83Z" fill="#112e42" stroke="#112e42"></path><path d="M635 502L629 392L478 507Z" fill="#00101c" stroke="#00101c"></path><path d="M629 392L662 392L563 301Z" fill="#15384f" stroke="#15384f"></path><path d="M593 0L470 0L461 91Z" fill="#246688" stroke="#246688"></path><path d="M189 0L198 130L282 110Z" fill="#0c2435" stroke="#0c2435"></path><path d="M563 600L635 502L478 507Z" fill="#1d4e6b" stroke="#1d4e6b"></path><path d="M709 174L638 103L614 206Z" fill="#297ea6" stroke="#297ea6"></path><path d="M614 206L638 103L461 91Z" fill="#15384f" stroke="#15384f"></path><path d="M372 600L524 600L478 507Z" fill="#081a28" stroke="#081a28"></path><path d="M123 474L185 600L216 500Z" fill="#0c2435" stroke="#0c2435"></path><path d="M325 0L189 0L282 110Z" fill="#246688" stroke="#246688"></path><path d="M524 600L563 600L478 507Z" fill="#277297" stroke="#277297"></path><path d="M738 316L709 174L614 206Z" fill="#15384f" stroke="#15384f"></path><path d="M0 195L0 288L120 162Z" fill="#081a28" stroke="#081a28"></path><path d="M120 162L0 288L138 313Z" fill="#246688" stroke="#246688"></path><path d="M122 439L0 531L123 474Z" fill="#205a7a" stroke="#205a7a"></path><path d="M123 474L78 600L185 600Z" fill="#19435d" stroke="#19435d"></path><path d="M635 502L698 468L662 392Z" fill="#15384f" stroke="#15384f"></path><path d="M662 392L738 316L563 301Z" fill="#1d4e6b" stroke="#1d4e6b"></path><path d="M706 600L698 468L635 502Z" fill="#205a7a" stroke="#205a7a"></path><path d="M790 404L738 316L662 392Z" fill="#205a7a" stroke="#205a7a"></path><path d="M0 288L0 377L138 313Z" fill="#0c2435" stroke="#0c2435"></path><path d="M716 73L593 0L638 103Z" fill="#0c2435" stroke="#0c2435"></path><path d="M638 103L593 0L461 91Z" fill="#19435d" stroke="#19435d"></path><path d="M0 132L0 195L120 162Z" fill="#19435d" stroke="#19435d"></path><path d="M0 132L120 162L122 78Z" fill="#081a28" stroke="#081a28"></path><path d="M189 0L102 0L122 78Z" fill="#112e42" stroke="#112e42"></path><path d="M0 0L0 132L122 78Z" fill="#19435d" stroke="#19435d"></path><path d="M738 316L767 188L709 174Z" fill="#081a28" stroke="#081a28"></path><path d="M709 174L716 73L638 103Z" fill="#205a7a" stroke="#205a7a"></path><path d="M0 531L78 600L123 474Z" fill="#246688" stroke="#246688"></path><path d="M767 188L716 73L709 174Z" fill="#246688" stroke="#246688"></path><path d="M698 468L790 404L662 392Z" fill="#297ea6" stroke="#297ea6"></path><path d="M738 316L824 326L767 188Z" fill="#00101c" stroke="#00101c"></path><path d="M825 520L790 404L698 468Z" fill="#0c2435" stroke="#0c2435"></path><path d="M0 377L0 531L122 439Z" fill="#15384f" stroke="#15384f"></path><path d="M563 600L706 600L635 502Z" fill="#112e42" stroke="#112e42"></path><path d="M900 282L824 326L900 380Z" fill="#112e42" stroke="#112e42"></path><path d="M790 404L824 326L738 316Z" fill="#081a28" stroke="#081a28"></path><path d="M0 531L0 600L78 600Z" fill="#246688" stroke="#246688"></path><path d="M102 0L0 0L122 78Z" fill="#246688" stroke="#246688"></path><path d="M795 67L716 73L767 188Z" fill="#00101c" stroke="#00101c"></path><path d="M795 67L738 0L716 73Z" fill="#15384f" stroke="#15384f"></path><path d="M716 73L738 0L593 0Z" fill="#205a7a" stroke="#205a7a"></path><path d="M900 131L795 67L767 188Z" fill="#1d4e6b" stroke="#1d4e6b"></path><path d="M706 600L825 520L698 468Z" fill="#0c2435" stroke="#0c2435"></path><path d="M900 0L795 0L795 67Z" fill="#205a7a" stroke="#205a7a"></path><path d="M795 67L795 0L738 0Z" fill="#246688" stroke="#246688"></path><path d="M900 380L824 326L790 404Z" fill="#112e42" stroke="#112e42"></path><path d="M824 326L900 282L767 188Z" fill="#277297" stroke="#277297"></path><path d="M900 487L900 380L790 404Z" fill="#112e42" stroke="#112e42"></path><path d="M900 282L900 178L767 188Z" fill="#0c2435" stroke="#0c2435"></path><path d="M706 600L827 600L825 520Z" fill="#246688" stroke="#246688"></path><path d="M825 520L900 487L790 404Z" fill="#277297" stroke="#277297"></path><path d="M900 178L900 131L767 188Z" fill="#246688" stroke="#246688"></path><path d="M900 600L900 487L825 520Z" fill="#246688" stroke="#246688"></path><path d="M827 600L900 600L825 520Z" fill="#277297" stroke="#277297"></path><path d="M900 131L900 0L795 67Z" fill="#277297" stroke="#277297"></path></g></svg>