<svg version="1.1" viewBox="0.0 0.0 510.81627296587925 136.10498687664042" fill="none" stroke="none" stroke-linecap="square" stroke-miterlimit="10" xmlns:xlink="http://www.w3.org/1999/xlink" xmlns="http://www.w3.org/2000/svg"><clipPath id="p.0"><path d="m0 0l510.81628 0l0 136.10498l-510.81628 0l0 -136.10498z" clip-rule="nonzero"/></clipPath><g clip-path="url(#p.0)"><path fill="#000000" fill-opacity="0.0" d="m0 0l510.81628 0l0 136.10498l-510.81628 0z" fill-rule="evenodd"/><path stroke="#0c343d" stroke-width="3.0" stroke-linecap="butt" d="m16.0 15.501312l0 106.59318" fill-rule="nonzero"/><path stroke="#0c343d" stroke-width="3.0" stroke-linecap="butt" d="m496.0 15.501312l0 106.59318" fill-rule="nonzero"/><path fill="#073763" d="m63.283936 93.0979l0 -58.953125l8.078125 0l0 26.46875l27.28125 0l0 -26.46875l8.0 0l0 58.953125l-8.0 0l0 -25.28125l-27.28125 0l0 25.28125l-8.078125 0zm63.352448 0.484375q-4.71875 0 -7.796875 -2.84375q-3.078125 -2.84375 -3.078125 -7.875l0 -3.359375q0 -4.96875 3.390625 -8.125q3.40625 -3.15625 10.28125 -3.15625l13.359375 0l0 -4.484375q0 -2.484375 -0.84375 -4.203125q-0.828125 -1.71875 -3.078125 -2.59375q-2.234375 -0.890625 -6.625 -0.890625l-13.125 0l0 -4.71875q2.875 -0.640625 6.75 -1.109375q3.890625 -0.484375 9.09375 -0.5625q5.28125 0 8.828125 1.328125q3.5625 1.3125 5.328125 4.3125q1.765625 3.0 1.765625 7.953125l0 29.84375l-6.328125 0l-1.359375 -4.71875q-0.484375 0.3125 -2.0 1.15625q-1.515625 0.84375 -3.875 1.8125q-2.359375 0.953125 -5.125 1.59375q-2.765625 0.640625 -5.5625 0.640625zm3.6875 -5.84375q1.203125 0.078125 2.828125 -0.234375q1.640625 -0.328125 3.28125 -0.765625q1.640625 -0.4375 3.046875 -0.921875q1.40625 -0.484375 2.3125 -0.84375q0.921875 -0.359375 1.0 -0.4375l0 -12.3125l-11.1875 0.46875q-4.171875 0.25 -5.96875 2.09375q-1.796875 1.828125 -1.796875 4.796875l0 1.921875q0 2.3125 0.953125 3.71875q0.96875 1.390625 2.4375 1.953125q1.484375 0.5625 3.09375 0.5625zm31.429962 5.359375l0 -42.796875l6.40625 0l1.59375 4.640625q3.125 -2.15625 6.875 -3.75q3.765625 -1.609375 8.65625 -1.609375q4.0 0 6.796875 1.765625q2.796875 1.75 4.234375 4.46875q1.921875 -1.4375 4.640625 -2.875q2.71875 -1.4375 5.84375 -2.390625q3.125 -0.96875 6.0 -0.96875q4.796875 0 7.796875 1.96875q3.0 1.953125 4.3125 5.359375q1.328125 3.390625 1.328125 7.703125l0 28.484375l-8.0 0l0 -27.84375q0 -2.5625 -1.0 -4.4375q-1.0 -1.875 -2.796875 -2.90625q-1.796875 -1.046875 -4.359375 -1.046875q-3.203125 0 -6.5625 1.234375q-3.359375 1.234375 -6.15625 3.0q0.3125 1.046875 0.46875 2.125q0.171875 1.078125 0.171875 2.109375l0 27.765625l-8.0 0l0 -27.84375q0 -2.5625 -1.0 -4.4375q-1.0 -1.875 -2.765625 -2.90625q-1.765625 -1.046875 -4.3125 -1.046875q-2.40625 0 -4.453125 0.484375q-2.03125 0.46875 -3.875 1.3125q-1.84375 0.84375 -3.84375 2.03125l0 32.40625l-8.0 0zm84.002426 0.484375q-4.71875 0 -7.796875 -2.84375q-3.078125 -2.84375 -3.078125 -7.875l0 -3.359375q0 -4.96875 3.390625 -8.125q3.40625 -3.15625 10.28125 -3.15625l13.35939 0l0 -4.484375q0 -2.484375 -0.84375 -4.203125q-0.828125 -1.71875 -3.078125 -2.59375q-2.2343903 -0.890625 -6.6250153 -0.890625l-13.125 0l0 -4.71875q2.875 -0.640625 6.75 -1.109375q3.890625 -0.484375 9.09375 -0.5625q5.2812653 0 8.82814 1.328125q3.5625 1.3125 5.328125 4.3125q1.765625 3.0 1.765625 7.953125l0 29.84375l-6.328125 0l-1.359375 -4.71875q-0.484375 0.3125 -2.0 1.15625q-1.515625 0.84375 -3.875 1.8125q-2.3593903 0.953125 -5.1250153 1.59375q-2.765625 0.640625 -5.5625 0.640625zm3.6875 -5.84375q1.203125 0.078125 2.828125 -0.234375q1.640625 -0.328125 3.28125 -0.765625q1.6406403 -0.4375 3.0468903 -0.921875q1.40625 -0.484375 2.3125 -0.84375q0.921875 -0.359375 1.0 -0.4375l0 -12.3125l-11.187515 0.46875q-4.171875 0.25 -5.96875 2.09375q-1.796875 1.828125 -1.796875 4.796875l0 1.921875q0 2.3125 0.953125 3.71875q0.96875 1.390625 2.4375 1.953125q1.484375 0.5625 3.09375 0.5625zm46.242447 5.359375q-4.328125 0 -7.171875 -1.390625q-2.828125 -1.40625 -4.15625 -4.53125q-1.3125 -3.125 -1.234375 -8.3125l0.3125 -22.0l-6.796875 0l0 -5.203125l6.953125 -1.359375l1.203125 -12.0l6.328125 0l0 12.0l11.59375 0l0 6.5625l-11.59375 0l0 21.921875q0 2.46875 0.46875 4.0q0.484375 1.515625 1.359375 2.3125q0.890625 0.796875 1.921875 1.15625q1.046875 0.359375 2.0 0.4375l5.28125 0.484375l0 5.921875l-6.46875 0zm23.669983 0.484375q-4.71875 0 -7.796875 -2.84375q-3.078125 -2.84375 -3.078125 -7.875l0 -3.359375q0 -4.96875 3.390625 -8.125q3.40625 -3.15625 10.28125 -3.15625l13.359375 0l0 -4.484375q0 -2.484375 -0.84375 -4.203125q-0.828125 -1.71875 -3.078125 -2.59375q-2.234375 -0.890625 -6.625 -0.890625l-13.125 0l0 -4.71875q2.875 -0.640625 6.75 -1.109375q3.890625 -0.484375 9.09375 -0.5625q5.28125 0 8.828125 1.328125q3.5625 1.3125 5.328125 4.3125q1.765625 3.0 1.765625 7.953125l0 29.84375l-6.328125 0l-1.359375 -4.71875q-0.484375 0.3125 -2.0 1.15625q-1.515625 0.84375 -3.875 1.8125q-2.359375 0.953125 -5.125 1.59375q-2.765625 0.640625 -5.5625 0.640625zm3.6875 -5.84375q1.203125 0.078125 2.828125 -0.234375q1.640625 -0.328125 3.28125 -0.765625q1.640625 -0.4375 3.046875 -0.921875q1.40625 -0.484375 2.3125 -0.84375q0.921875 -0.359375 1.0 -0.4375l0 -12.3125l-11.1875 0.46875q-4.171875 0.25 -5.96875 2.09375q-1.796875 1.828125 -1.796875 4.796875l0 1.921875q0 2.3125 0.953125 3.71875q0.96875 1.390625 2.4375 1.953125q1.484375 0.5625 3.09375 0.5625zm31.429962 5.359375l0 -61.046875l8.0 0l0 34.640625l5.84375 0l11.921875 -16.390625l8.328125 0l-14.328125 20.0l15.359375 22.796875l-8.40625 0l-13.109375 -19.203125l-5.609375 0l0 19.203125l-8.0 0zm54.242462 0.484375q-6.0 0 -9.328125 -3.234375q-3.3125 -3.25 -3.3125 -9.890625l0 -30.15625l8.0 0l0 28.0q0 4.796875 2.203125 6.484375q2.203125 1.671875 6.203125 1.671875q3.203125 0 6.109375 -1.0q2.921875 -1.0 5.734375 -2.765625l0 -32.390625l8.0 0l0 42.796875l-6.40625 0l-1.59375 -4.5625q-3.125 2.0 -7.171875 3.53125q-4.03125 1.515625 -8.4375 1.515625zm35.19995 -0.40625q-1.359375 0 -1.359375 -1.359375l0 -6.953125q0 -1.453125 1.359375 -1.453125l4.5625 0q1.4375 0 1.4375 1.453125l0 6.953125q0 0.71875 -0.40625 1.046875q-0.390625 0.3125 -1.03125 0.3125l-4.5625 0z" fill-rule="nonzero"/></g></svg>