<svg version="1.1" viewBox="0.0 0.0 932.5354330708661 184.5984251968504" fill="none" stroke="none" stroke-linecap="square" stroke-miterlimit="10" xmlns:xlink="http://www.w3.org/1999/xlink" xmlns="http://www.w3.org/2000/svg" style=""><clipPath id="p.0"><path d="m0 0l932.53546 0l0 184.59842l-932.53546 0l0 -184.59842z" clip-rule="nonzero" class="KjCReeYq_0"></path></clipPath><g clip-path="url(#p.0)"><path fill="#000000" fill-opacity="0.0" d="m0 0l932.53546 0l0 184.59842l-932.53546 0z" fill-rule="evenodd" class="KjCReeYq_1"></path><path fill="#073763" d="m69.32617 27.097097l0 129.14551l10.194191 0l0 -58.24433l69.66985 0l0 58.24433l10.194183 0l0 -129.14551l-10.194183 0l0 61.766487l-69.66985 0l0 -61.766487z" fill-rule="evenodd" class="KjCReeYq_2"></path><path fill="#073763" d="m245.43936 108.22109l0 31.842537c-0.13363647 0 -1.0499725 0.35316467 -2.748993 1.0595093c-1.6990204 0.6872406 -3.92305 1.4794769 -6.672043 2.3767242c-2.748993 0.87815857 -5.7079773 1.7563019 -8.876968 2.6344604c-3.168991 0.8781433 -6.3093414 1.6417542 -9.421036 2.2908325c-2.632965 0.53305054 -4.992584 0.7995758 -7.0788574 0.7995758c-0.3793335 0 -0.74961853 -0.008804321 -1.1108551 -0.026428223c-2.577179 0 -5.1829987 -0.52497864 -7.817459 -1.5749359c-2.6344452 -1.0499725 -4.8393707 -2.8349152 -6.6147614 -5.354828c-1.7563019 -2.5389862 -2.6344604 -5.9179688 -2.6344604 -10.136917l0 -4.3812103c0 -5.1734467 1.5558472 -9.459206 4.667572 -12.857277c3.1117096 -3.398056 8.30426 -5.2116394 15.577637 -5.4407196l32.730225 -1.2313232zm-21.516571 -47.3433c-0.39328003 0 -0.79037476 0.0030136108 -1.1912689 0.009037018c-6.91066 0.114543915 -13.038635 0.41043854 -18.383911 0.8876991c-5.345276 0.45816422 -9.94603 0.9258728 -13.802246 1.4031334l0 6.156605l29.379883 0c6.7961273 0 12.007751 0.8208771 15.634918 2.4626389c3.646225 1.6417618 6.2043 3.9898605 7.6742706 7.044304c1.4699402 3.035347 2.2049255 6.672035 2.2049255 10.910072l0 13.000458l-34.305176 0c-9.506943 0 -16.694412 2.290825 -21.562424 6.87249c-4.8680115 4.5625687 -7.302017 10.547363 -7.302017 17.954376l0 6.3284073c0 7.502472 2.252655 13.277267 6.75795 17.324402c4.5243835 4.0471344 10.184647 6.070694 16.980774 6.070694c4.238022 0 8.58107 -0.5536194 13.029083 -1.6608429c4.4480133 -1.1263275 8.666962 -2.4531097 12.65683 -3.9803162c3.989853 -1.5272217 7.244751 -2.9017181 9.764664 -4.1234894c2.5199127 -1.2408752 3.9612122 -1.9758453 4.323944 -2.2049255l2.1190186 10.910065l7.731552 0l0 -67.03539c0 -6.4524994 -1.1454163 -11.788216 -3.4362488 -16.007172c-2.2908325 -4.2189407 -5.8702545 -7.349739 -10.738266 -9.392395c-4.611801 -1.9532318 -10.457214 -2.9298477 -17.536255 -2.9298477z" fill-rule="evenodd" class="KjCReeYq_3"></path><path fill="#073763" d="m330.23413 60.88683c-7.158844 0 -13.792694 1.2026863 -19.90158 3.608059c-6.0897827 2.4053726 -11.540039 5.249817 -16.3508 8.53334l-2.63443 -10.566452l-7.5597534 0l0 93.78082l10.194183 0l0 -76.170074c3.6462708 -2.0044708 7.1397705 -3.7703247 10.48056 -5.2975388c3.3407898 -1.5272217 6.796112 -2.6630936 10.365997 -3.407608c3.5889893 -0.76361847 7.607483 -1.1454163 12.055481 -1.1454163c4.581665 0 8.447449 0.99269104 11.597351 2.9780731c3.1689758 1.9853897 5.631592 4.686653 7.387909 8.103813c1.7753906 3.3980637 2.663086 7.2638397 2.663086 11.597321l0 63.34143l10.194183 0l0 -63.34143c0 -1.9853821 -0.20999146 -3.942131 -0.62997437 -5.870247c-0.4008789 -1.9472046 -0.9544983 -3.7989578 -1.6608276 -5.5552597c5.402527 -3.1689835 11.148682 -5.832077 17.238464 -7.989273c6.1088867 -2.1762848 12.036407 -3.2644272 17.782562 -3.2644272c4.581665 0 8.476074 0.99269104 11.683258 2.9780731c3.2262268 1.9853897 5.7175293 4.686653 7.473816 8.103813c1.7753906 3.3980637 2.663086 7.2638397 2.663086 11.597321l0 63.34143l10.194183 0l0 -64.02868c0 -5.6316223 -1.0595093 -10.824165 -3.1785278 -15.577637c-2.0999146 -4.7534714 -5.3547974 -8.561974 -9.764648 -11.425514c-4.390747 -2.8826294 -9.869659 -4.3239403 -16.436707 -4.3239403c-4.4480286 0 -9.172852 0.7349777 -14.1744995 2.2049255c-4.982544 1.469944 -9.66922 3.264431 -14.059967 5.3834496c-4.390747 2.0999222 -8.056091 4.3239365 -10.995972 6.672043c-2.1190186 -4.238037 -5.2879944 -7.6742783 -9.506958 -10.308739c-4.218933 -2.6344528 -9.258759 -3.9516792 -15.119476 -3.9516792z" fill-rule="evenodd" class="KjCReeYq_4"></path><path fill="#073763" d="m508.81497 108.22109l0 31.842537c-0.13363647 0 -1.0499573 0.35316467 -2.748993 1.0595093c-1.6990356 0.6872406 -3.9230347 1.4794769 -6.6720276 2.3767242c-2.748993 0.87815857 -5.708008 1.7563019 -8.876984 2.6344604c-3.1689758 0.8781433 -6.309326 1.6417542 -9.4210205 2.2908325c-2.6329956 0.53305054 -4.9926147 0.7995758 -7.0788574 0.7995758c-0.3793335 0 -0.7496033 -0.008804321 -1.1108704 -0.026428223c-2.577179 0 -5.1829834 -0.52497864 -7.817444 -1.5749359c-2.6344604 -1.0499725 -4.839386 -2.8349152 -6.6147766 -5.354828c-1.7562866 -2.5389862 -2.6344604 -5.9179688 -2.6344604 -10.136917l0 -4.3812103c0 -5.1734467 1.5558777 -9.459206 4.667572 -12.857277c3.1117249 -3.398056 8.30426 -5.2116394 15.577637 -5.4407196l32.730225 -1.2313232zm-21.516571 -47.3433c-0.39328003 0 -0.79037476 0.0030136108 -1.1912842 0.009037018c-6.9106445 0.114543915 -13.038635 0.41043854 -18.38388 0.8876991c-5.345276 0.45816422 -9.946045 0.9258728 -13.802246 1.4031334l0 6.156605l29.379883 0c6.796112 0 12.007751 0.8208771 15.634888 2.4626389c3.6462402 1.6417618 6.2043457 3.9898605 7.674286 7.044304c1.4699707 3.035347 2.2049255 6.672035 2.2049255 10.910072l0 13.000458l-34.305176 0c-9.5069275 0 -16.694397 2.290825 -21.562408 6.87249c-4.8680115 4.5625687 -7.3020325 10.547363 -7.3020325 17.954376l0 6.3284073c0 7.502472 2.252655 13.277267 6.7579346 17.324402c4.524414 4.0471344 10.184662 6.070694 16.980774 6.070694c4.238037 0 8.581085 -0.5536194 13.029114 -1.6608429c4.4480286 -1.1263275 8.666962 -2.4531097 12.65683 -3.9803162c3.9898682 -1.5272217 7.244751 -2.9017181 9.764648 -4.1234894c2.519928 -1.2408752 3.9612427 -1.9758453 4.323944 -2.2049255l2.1190186 10.910065l7.731537 0l0 -67.03539c0 -6.4524994 -1.1453857 -11.788216 -3.4362183 -16.007172c-2.2908325 -4.2189407 -5.87027 -7.349739 -10.738281 -9.392395c-4.611786 -1.9532318 -10.457214 -2.9298477 -17.536255 -2.9298477z" fill-rule="evenodd" class="KjCReeYq_5"></path><path fill="#073763" d="m553.66345 36.260414l-1.9185791 26.201363l-14.976318 1.9472046l0 6.672043l14.976318 0l-0.5440674 55.781693c0 6.910675 0.9354248 12.542297 2.8062744 16.894867c1.8899536 4.333496 4.734375 7.502472 8.533325 9.506943c3.8180542 1.9853973 8.542908 2.9780731 14.1744995 2.9780731l11.797791 0l0 -7.387924l-11.454163 -1.0595093c-1.6417236 -0.11453247 -3.3694458 -0.42951965 -5.1829834 -0.94496155c-1.8135986 -0.5345154 -3.5126343 -1.5081177 -5.097107 -2.920807c-1.5844727 -1.4126892 -2.8826294 -3.493515 -3.8944092 -6.242508c-0.9926758 -2.7680817 -1.4890137 -6.3761444 -1.4890137 -10.824173l0 -55.781693l28.520813 0l0 -8.619247l-28.520813 0l0 -26.201363z" fill-rule="evenodd" class="KjCReeYq_6"></path><path fill="#073763" d="m667.86084 108.22109l0 31.842537c-0.13360596 0 -1.0499268 0.35316467 -2.7489624 1.0595093c-1.6990356 0.6872406 -3.9230957 1.4794769 -6.672058 2.3767242c-2.7490234 0.87815857 -5.708008 1.7563019 -8.876953 2.6344604c-3.1690063 0.8781433 -6.309326 1.6417542 -9.421082 2.2908325c-2.6329346 0.53305054 -4.9925537 0.7995758 -7.0788574 0.7995758c-0.3793335 0 -0.74957275 -0.008804321 -1.1108398 -0.026428223c-2.5771484 0 -5.1829834 -0.52497864 -7.817444 -1.5749359c-2.6344604 -1.0499725 -4.8393555 -2.8349152 -6.614746 -5.354828c-1.7563477 -2.5389862 -2.6344604 -5.9179688 -2.6344604 -10.136917l0 -4.3812103c0 -5.1734467 1.5558472 -9.459206 4.6675415 -12.857277c3.1116943 -3.398056 8.30426 -5.2116394 15.577637 -5.4407196l32.730225 -1.2313232zm-21.516602 -47.3433c-0.3932495 0 -0.79034424 0.0030136108 -1.1912231 0.009037018c-6.9107056 0.114543915 -13.038635 0.41043854 -18.383911 0.8876991c-5.345276 0.45816422 -9.946045 0.9258728 -13.802246 1.4031334l0 6.156605l29.379883 0c6.7961426 0 12.007751 0.8208771 15.634888 2.4626389c3.6462402 1.6417618 6.2043457 3.9898605 7.6743164 7.044304c1.4699097 3.035347 2.204895 6.672035 2.204895 10.910072l0 13.000458l-34.305176 0c-9.506958 0 -16.694397 2.290825 -21.562439 6.87249c-4.867981 4.5625687 -7.302002 10.547363 -7.302002 17.954376l0 6.3284073c0 7.502472 2.2526245 13.277267 6.7579346 17.324402c4.524414 4.0471344 10.184631 6.070694 16.980774 6.070694c4.238037 0 8.581055 -0.5536194 13.029114 -1.6608429c4.447998 -1.1263275 8.666992 -2.4531097 12.656799 -3.9803162c3.9898682 -1.5272217 7.244751 -2.9017181 9.764709 -4.1234894c2.5198975 -1.2408752 3.9611816 -1.9758453 4.3239136 -2.2049255l2.1190186 10.910065l7.7315674 0l0 -67.03539c0 -6.4524994 -1.1454468 -11.788216 -3.4362793 -16.007172c-2.2908325 -4.2189407 -5.8702393 -7.349739 -10.73822 -9.392395c-4.6118164 -1.9532318 -10.457275 -2.9298477 -17.536316 -2.9298477z" fill-rule="evenodd" class="KjCReeYq_7"></path><path fill="#073763" d="m706.2091 22.0l0 134.2426l10.194153 0l0 -45.730675l13.544556 0l33.446106 45.730675l11.253662 0l-36.76776 -50.140526l34.820557 -43.640297l-11.081848 0l-31.126648 38.886826l-14.088623 0l0 -79.3486z" fill-rule="evenodd" class="KjCReeYq_8"></path><path fill="#073763" d="m792.59766 62.461777l0 65.97589c0 10.098724 2.4625854 17.438934 7.3878784 22.0206c4.925293 4.562561 11.902771 6.8438416 20.932495 6.8438416c6.9106445 0 13.506287 -1.1454163 19.786987 -3.4362335c6.2807007 -2.2908325 11.826416 -5.0207367 16.637146 -8.189713l2.6344604 10.566437l7.5597534 0l0 -93.78082l-10.194214 0l0 76.198715c-5.402527 3.149887 -10.566406 5.5170746 -15.491699 7.1015625c-4.925293 1.5845032 -10.442383 2.3767395 -16.55127 2.3767395c-7.2542725 0 -12.819031 -1.4890289 -16.694397 -4.4671173c-3.8753052 -2.9971619 -5.8129883 -8.838776 -5.8129883 -17.524841l0 -63.68506z" fill-rule="evenodd" class="KjCReeYq_9"></path><path fill="#073763" d="m895.32367 138.46004c-1.6417847 0 -2.4626465 0.8208771 -2.4626465 2.4626465l0 12.857285c0 1.6417694 0.8208618 2.4626312 2.4626465 2.4626312l5.6411743 0c0.7062988 0 1.2885742 -0.1717987 1.7467651 -0.51542664c0.4772339 -0.36271667 0.71588135 -1.0117798 0.71588135 -1.9472046l0 -12.857285c0 -1.6417694 -0.82092285 -2.4626465 -2.4626465 -2.4626465z" fill-rule="evenodd" class="KjCReeYq_10"></path><path stroke="#073763" stroke-width="4.0" stroke-linejoin="round" stroke-linecap="butt" d="m69.32617 27.097097l0 129.14551l10.194191 0l0 -58.24433l69.66985 0l0 58.24433l10.194183 0l0 -129.14551l-10.194183 0l0 61.766487l-69.66985 0l0 -61.766487z" fill-rule="evenodd" class="KjCReeYq_11"></path><path stroke="#073763" stroke-width="4.0" stroke-linejoin="round" stroke-linecap="butt" d="m245.43936 108.22109l0 31.842537c-0.13363647 0 -1.0499725 0.35316467 -2.748993 1.0595093c-1.6990204 0.6872406 -3.92305 1.4794769 -6.672043 2.3767242c-2.748993 0.87815857 -5.7079773 1.7563019 -8.876968 2.6344604c-3.168991 0.8781433 -6.3093414 1.6417542 -9.421036 2.2908325c-2.632965 0.53305054 -4.992584 0.7995758 -7.0788574 0.7995758c-0.3793335 0 -0.74961853 -0.008804321 -1.1108551 -0.026428223c-2.577179 0 -5.1829987 -0.52497864 -7.817459 -1.5749359c-2.6344452 -1.0499725 -4.8393707 -2.8349152 -6.6147614 -5.354828c-1.7563019 -2.5389862 -2.6344604 -5.9179688 -2.6344604 -10.136917l0 -4.3812103c0 -5.1734467 1.5558472 -9.459206 4.667572 -12.857277c3.1117096 -3.398056 8.30426 -5.2116394 15.577637 -5.4407196l32.730225 -1.2313232zm-21.516571 -47.3433c-0.39328003 0 -0.79037476 0.0030136108 -1.1912689 0.009037018c-6.91066 0.114543915 -13.038635 0.41043854 -18.383911 0.8876991c-5.345276 0.45816422 -9.94603 0.9258728 -13.802246 1.4031334l0 6.156605l29.379883 0c6.7961273 0 12.007751 0.8208771 15.634918 2.4626389c3.646225 1.6417618 6.2043 3.9898605 7.6742706 7.044304c1.4699402 3.035347 2.2049255 6.672035 2.2049255 10.910072l0 13.000458l-34.305176 0c-9.506943 0 -16.694412 2.290825 -21.562424 6.87249c-4.8680115 4.5625687 -7.302017 10.547363 -7.302017 17.954376l0 6.3284073c0 7.502472 2.252655 13.277267 6.75795 17.324402c4.5243835 4.0471344 10.184647 6.070694 16.980774 6.070694c4.238022 0 8.58107 -0.5536194 13.029083 -1.6608429c4.4480133 -1.1263275 8.666962 -2.4531097 12.65683 -3.9803162c3.989853 -1.5272217 7.244751 -2.9017181 9.764664 -4.1234894c2.5199127 -1.2408752 3.9612122 -1.9758453 4.323944 -2.2049255l2.1190186 10.910065l7.731552 0l0 -67.03539c0 -6.4524994 -1.1454163 -11.788216 -3.4362488 -16.007172c-2.2908325 -4.2189407 -5.8702545 -7.349739 -10.738266 -9.392395c-4.611801 -1.9532318 -10.457214 -2.9298477 -17.536255 -2.9298477z" fill-rule="evenodd" class="KjCReeYq_12"></path><path stroke="#073763" stroke-width="4.0" stroke-linejoin="round" stroke-linecap="butt" d="m330.23413 60.88683c-7.158844 0 -13.792694 1.2026863 -19.90158 3.608059c-6.0897827 2.4053726 -11.540039 5.249817 -16.3508 8.53334l-2.63443 -10.566452l-7.5597534 0l0 93.78082l10.194183 0l0 -76.170074c3.6462708 -2.0044708 7.1397705 -3.7703247 10.48056 -5.2975388c3.3407898 -1.5272217 6.796112 -2.6630936 10.365997 -3.407608c3.5889893 -0.76361847 7.607483 -1.1454163 12.055481 -1.1454163c4.581665 0 8.447449 0.99269104 11.597351 2.9780731c3.1689758 1.9853897 5.631592 4.686653 7.387909 8.103813c1.7753906 3.3980637 2.663086 7.2638397 2.663086 11.597321l0 63.34143l10.194183 0l0 -63.34143c0 -1.9853821 -0.20999146 -3.942131 -0.62997437 -5.870247c-0.4008789 -1.9472046 -0.9544983 -3.7989578 -1.6608276 -5.5552597c5.402527 -3.1689835 11.148682 -5.832077 17.238464 -7.989273c6.1088867 -2.1762848 12.036407 -3.2644272 17.782562 -3.2644272c4.581665 0 8.476074 0.99269104 11.683258 2.9780731c3.2262268 1.9853897 5.7175293 4.686653 7.473816 8.103813c1.7753906 3.3980637 2.663086 7.2638397 2.663086 11.597321l0 63.34143l10.194183 0l0 -64.02868c0 -5.6316223 -1.0595093 -10.824165 -3.1785278 -15.577637c-2.0999146 -4.7534714 -5.3547974 -8.561974 -9.764648 -11.425514c-4.390747 -2.8826294 -9.869659 -4.3239403 -16.436707 -4.3239403c-4.4480286 0 -9.172852 0.7349777 -14.1744995 2.2049255c-4.982544 1.469944 -9.66922 3.264431 -14.059967 5.3834496c-4.390747 2.0999222 -8.056091 4.3239365 -10.995972 6.672043c-2.1190186 -4.238037 -5.2879944 -7.6742783 -9.506958 -10.308739c-4.218933 -2.6344528 -9.258759 -3.9516792 -15.119476 -3.9516792z" fill-rule="evenodd" class="KjCReeYq_13"></path><path stroke="#073763" stroke-width="4.0" stroke-linejoin="round" stroke-linecap="butt" d="m508.81497 108.22109l0 31.842537c-0.13363647 0 -1.0499573 0.35316467 -2.748993 1.0595093c-1.6990356 0.6872406 -3.9230347 1.4794769 -6.6720276 2.3767242c-2.748993 0.87815857 -5.708008 1.7563019 -8.876984 2.6344604c-3.1689758 0.8781433 -6.309326 1.6417542 -9.4210205 2.2908325c-2.6329956 0.53305054 -4.9926147 0.7995758 -7.0788574 0.7995758c-0.3793335 0 -0.7496033 -0.008804321 -1.1108704 -0.026428223c-2.577179 0 -5.1829834 -0.52497864 -7.817444 -1.5749359c-2.6344604 -1.0499725 -4.839386 -2.8349152 -6.6147766 -5.354828c-1.7562866 -2.5389862 -2.6344604 -5.9179688 -2.6344604 -10.136917l0 -4.3812103c0 -5.1734467 1.5558777 -9.459206 4.667572 -12.857277c3.1117249 -3.398056 8.30426 -5.2116394 15.577637 -5.4407196l32.730225 -1.2313232zm-21.516571 -47.3433c-0.39328003 0 -0.79037476 0.0030136108 -1.1912842 0.009037018c-6.9106445 0.114543915 -13.038635 0.41043854 -18.38388 0.8876991c-5.345276 0.45816422 -9.946045 0.9258728 -13.802246 1.4031334l0 6.156605l29.379883 0c6.796112 0 12.007751 0.8208771 15.634888 2.4626389c3.6462402 1.6417618 6.2043457 3.9898605 7.674286 7.044304c1.4699707 3.035347 2.2049255 6.672035 2.2049255 10.910072l0 13.000458l-34.305176 0c-9.5069275 0 -16.694397 2.290825 -21.562408 6.87249c-4.8680115 4.5625687 -7.3020325 10.547363 -7.3020325 17.954376l0 6.3284073c0 7.502472 2.252655 13.277267 6.7579346 17.324402c4.524414 4.0471344 10.184662 6.070694 16.980774 6.070694c4.238037 0 8.581085 -0.5536194 13.029114 -1.6608429c4.4480286 -1.1263275 8.666962 -2.4531097 12.65683 -3.9803162c3.9898682 -1.5272217 7.244751 -2.9017181 9.764648 -4.1234894c2.519928 -1.2408752 3.9612427 -1.9758453 4.323944 -2.2049255l2.1190186 10.910065l7.731537 0l0 -67.03539c0 -6.4524994 -1.1453857 -11.788216 -3.4362183 -16.007172c-2.2908325 -4.2189407 -5.87027 -7.349739 -10.738281 -9.392395c-4.611786 -1.9532318 -10.457214 -2.9298477 -17.536255 -2.9298477z" fill-rule="evenodd" class="KjCReeYq_14"></path><path stroke="#073763" stroke-width="4.0" stroke-linejoin="round" stroke-linecap="butt" d="m553.66345 36.260414l-1.9185791 26.201363l-14.976318 1.9472046l0 6.672043l14.976318 0l-0.5440674 55.781693c0 6.910675 0.9354248 12.542297 2.8062744 16.894867c1.8899536 4.333496 4.734375 7.502472 8.533325 9.506943c3.8180542 1.9853973 8.542908 2.9780731 14.1744995 2.9780731l11.797791 0l0 -7.387924l-11.454163 -1.0595093c-1.6417236 -0.11453247 -3.3694458 -0.42951965 -5.1829834 -0.94496155c-1.8135986 -0.5345154 -3.5126343 -1.5081177 -5.097107 -2.920807c-1.5844727 -1.4126892 -2.8826294 -3.493515 -3.8944092 -6.242508c-0.9926758 -2.7680817 -1.4890137 -6.3761444 -1.4890137 -10.824173l0 -55.781693l28.520813 0l0 -8.619247l-28.520813 0l0 -26.201363z" fill-rule="evenodd" class="KjCReeYq_15"></path><path stroke="#073763" stroke-width="4.0" stroke-linejoin="round" stroke-linecap="butt" d="m667.86084 108.22109l0 31.842537c-0.13360596 0 -1.0499268 0.35316467 -2.7489624 1.0595093c-1.6990356 0.6872406 -3.9230957 1.4794769 -6.672058 2.3767242c-2.7490234 0.87815857 -5.708008 1.7563019 -8.876953 2.6344604c-3.1690063 0.8781433 -6.309326 1.6417542 -9.421082 2.2908325c-2.6329346 0.53305054 -4.9925537 0.7995758 -7.0788574 0.7995758c-0.3793335 0 -0.74957275 -0.008804321 -1.1108398 -0.026428223c-2.5771484 0 -5.1829834 -0.52497864 -7.817444 -1.5749359c-2.6344604 -1.0499725 -4.8393555 -2.8349152 -6.614746 -5.354828c-1.7563477 -2.5389862 -2.6344604 -5.9179688 -2.6344604 -10.136917l0 -4.3812103c0 -5.1734467 1.5558472 -9.459206 4.6675415 -12.857277c3.1116943 -3.398056 8.30426 -5.2116394 15.577637 -5.4407196l32.730225 -1.2313232zm-21.516602 -47.3433c-0.3932495 0 -0.79034424 0.0030136108 -1.1912231 0.009037018c-6.9107056 0.114543915 -13.038635 0.41043854 -18.383911 0.8876991c-5.345276 0.45816422 -9.946045 0.9258728 -13.802246 1.4031334l0 6.156605l29.379883 0c6.7961426 0 12.007751 0.8208771 15.634888 2.4626389c3.6462402 1.6417618 6.2043457 3.9898605 7.6743164 7.044304c1.4699097 3.035347 2.204895 6.672035 2.204895 10.910072l0 13.000458l-34.305176 0c-9.506958 0 -16.694397 2.290825 -21.562439 6.87249c-4.867981 4.5625687 -7.302002 10.547363 -7.302002 17.954376l0 6.3284073c0 7.502472 2.2526245 13.277267 6.7579346 17.324402c4.524414 4.0471344 10.184631 6.070694 16.980774 6.070694c4.238037 0 8.581055 -0.5536194 13.029114 -1.6608429c4.447998 -1.1263275 8.666992 -2.4531097 12.656799 -3.9803162c3.9898682 -1.5272217 7.244751 -2.9017181 9.764709 -4.1234894c2.5198975 -1.2408752 3.9611816 -1.9758453 4.3239136 -2.2049255l2.1190186 10.910065l7.7315674 0l0 -67.03539c0 -6.4524994 -1.1454468 -11.788216 -3.4362793 -16.007172c-2.2908325 -4.2189407 -5.8702393 -7.349739 -10.73822 -9.392395c-4.6118164 -1.9532318 -10.457275 -2.9298477 -17.536316 -2.9298477z" fill-rule="evenodd" class="KjCReeYq_16"></path><path stroke="#073763" stroke-width="4.0" stroke-linejoin="round" stroke-linecap="butt" d="m706.2091 22.0l0 134.2426l10.194153 0l0 -45.730675l13.544556 0l33.446106 45.730675l11.253662 0l-36.76776 -50.140526l34.820557 -43.640297l-11.081848 0l-31.126648 38.886826l-14.088623 0l0 -79.3486z" fill-rule="evenodd" class="KjCReeYq_17"></path><path stroke="#073763" stroke-width="4.0" stroke-linejoin="round" stroke-linecap="butt" d="m792.59766 62.461777l0 65.97589c0 10.098724 2.4625854 17.438934 7.3878784 22.0206c4.925293 4.562561 11.902771 6.8438416 20.932495 6.8438416c6.9106445 0 13.506287 -1.1454163 19.786987 -3.4362335c6.2807007 -2.2908325 11.826416 -5.0207367 16.637146 -8.189713l2.6344604 10.566437l7.5597534 0l0 -93.78082l-10.194214 0l0 76.198715c-5.402527 3.149887 -10.566406 5.5170746 -15.491699 7.1015625c-4.925293 1.5845032 -10.442383 2.3767395 -16.55127 2.3767395c-7.2542725 0 -12.819031 -1.4890289 -16.694397 -4.4671173c-3.8753052 -2.9971619 -5.8129883 -8.838776 -5.8129883 -17.524841l0 -63.68506z" fill-rule="evenodd" class="KjCReeYq_18"></path><path stroke="#073763" stroke-width="4.0" stroke-linejoin="round" stroke-linecap="butt" d="m895.32367 138.46004c-1.6417847 0 -2.4626465 0.8208771 -2.4626465 2.4626465l0 12.857285c0 1.6417694 0.8208618 2.4626312 2.4626465 2.4626312l5.6411743 0c0.7062988 0 1.2885742 -0.1717987 1.7467651 -0.51542664c0.4772339 -0.36271667 0.71588135 -1.0117798 0.71588135 -1.9472046l0 -12.857285c0 -1.6417694 -0.82092285 -2.4626465 -2.4626465 -2.4626465z" fill-rule="evenodd" class="KjCReeYq_19"></path></g><style data-made-with="vivus-instant">.KjCReeYq_0{stroke-dasharray:2235 2237;stroke-dashoffset:2236;animation:KjCReeYq_draw 4000ms ease-in-out 0ms forwards;}.KjCReeYq_1{stroke-dasharray:2235 2237;stroke-dashoffset:2236;animation:KjCReeYq_draw 4000ms ease-in-out 0ms forwards;}.KjCReeYq_2{stroke-dasharray:679 681;stroke-dashoffset:680;animation:KjCReeYq_draw 4000ms ease-in-out 0ms forwards;}.KjCReeYq_3{stroke-dasharray:583 585;stroke-dashoffset:584;animation:KjCReeYq_draw 4000ms ease-in-out 0ms forwards;}.KjCReeYq_4{stroke-dasharray:788 790;stroke-dashoffset:789;animation:KjCReeYq_draw 4000ms ease-in-out 0ms forwards;}.KjCReeYq_5{stroke-dasharray:583 585;stroke-dashoffset:584;animation:KjCReeYq_draw 4000ms ease-in-out 0ms forwards;}.KjCReeYq_6{stroke-dasharray:380 382;stroke-dashoffset:381;animation:KjCReeYq_draw 4000ms ease-in-out 0ms forwards;}.KjCReeYq_7{stroke-dasharray:583 585;stroke-dashoffset:584;animation:KjCReeYq_draw 4000ms ease-in-out 0ms forwards;}.KjCReeYq_8{stroke-dasharray:555 557;stroke-dashoffset:556;animation:KjCReeYq_draw 4000ms ease-in-out 0ms forwards;}.KjCReeYq_9{stroke-dasharray:495 497;stroke-dashoffset:496;animation:KjCReeYq_draw 4000ms ease-in-out 0ms forwards;}.KjCReeYq_10{stroke-dasharray:53 55;stroke-dashoffset:54;animation:KjCReeYq_draw 4000ms ease-in-out 0ms forwards;}.KjCReeYq_11{stroke-dasharray:679 681;stroke-dashoffset:680;animation:KjCReeYq_draw 4000ms ease-in-out 0ms forwards;}.KjCReeYq_12{stroke-dasharray:583 585;stroke-dashoffset:584;animation:KjCReeYq_draw 4000ms ease-in-out 0ms forwards;}.KjCReeYq_13{stroke-dasharray:788 790;stroke-dashoffset:789;animation:KjCReeYq_draw 4000ms ease-in-out 0ms forwards;}.KjCReeYq_14{stroke-dasharray:583 585;stroke-dashoffset:584;animation:KjCReeYq_draw 4000ms ease-in-out 0ms forwards;}.KjCReeYq_15{stroke-dasharray:380 382;stroke-dashoffset:381;animation:KjCReeYq_draw 4000ms ease-in-out 0ms forwards;}.KjCReeYq_16{stroke-dasharray:583 585;stroke-dashoffset:584;animation:KjCReeYq_draw 4000ms ease-in-out 0ms forwards;}.KjCReeYq_17{stroke-dasharray:555 557;stroke-dashoffset:556;animation:KjCReeYq_draw 4000ms ease-in-out 0ms forwards;}.KjCReeYq_18{stroke-dasharray:495 497;stroke-dashoffset:496;animation:KjCReeYq_draw 4000ms ease-in-out 0ms forwards;}.KjCReeYq_19{stroke-dasharray:53 55;stroke-dashoffset:54;animation:KjCReeYq_draw 4000ms ease-in-out 0ms forwards;}@keyframes KjCReeYq_draw{100%{stroke-dashoffset:0;}}@keyframes KjCReeYq_fade{0%{stroke-opacity:1;}95.1219512195122%{stroke-opacity:1;}100%{stroke-opacity:0;}}</style></svg>